<svg width="140" height="73" viewBox="0 0 140 73" fill="none" xmlns="http://www.w3.org/2000/svg">
<rect width="140" height="73" fill="#8C6A6A"/>
<g clip-path="url(#clip0_0_1)" filter="url(#filter0_d_0_1)">
<rect width="132" height="65" transform="translate(4)" fill="white"/>
<path d="M42.732 43.0512L41.2165 34.4565L46.3699 33.5478L46.5327 34.471L42.42 35.1962L42.9321 38.1003L46.6587 37.4432L46.8215 38.3664L43.0949 39.0235L43.7727 42.8677L42.732 43.0512ZM52.7273 38.5713L52.0554 34.7608L53.0458 34.5861L54.1825 41.0321L53.192 41.2068L52.9997 40.1157L52.9325 40.1275C52.8391 40.4815 52.6532 40.8013 52.3747 41.0869C52.0957 41.3698 51.7128 41.5541 51.226 41.64C50.8232 41.711 50.4495 41.686 50.1051 41.565C49.7602 41.4412 49.4666 41.216 49.2244 40.8895C48.9817 40.5602 48.812 40.1213 48.7153 39.573L47.9931 35.4771L48.9835 35.3024L49.6939 39.3312C49.7768 39.8012 49.9744 40.1529 50.2867 40.3863C50.6018 40.6192 50.965 40.6994 51.3763 40.6269C51.6225 40.5835 51.8618 40.4764 52.0942 40.3056C52.3294 40.1343 52.5107 39.9033 52.6383 39.6125C52.7687 39.3212 52.7984 38.9742 52.7273 38.5713ZM55.9964 40.7123L54.8598 34.2663L55.8167 34.0976L55.9883 35.0712L56.0555 35.0593C56.1168 34.7197 56.2838 34.4234 56.5565 34.1705C56.8292 33.9176 57.1586 33.7571 57.5447 33.689C57.6174 33.6762 57.7086 33.6615 57.8182 33.6451C57.9278 33.6287 58.0111 33.6183 58.068 33.614L58.2456 34.6212C58.2106 34.6188 58.1314 34.6197 58.0082 34.6242C57.8872 34.6253 57.761 34.6374 57.6295 34.6606C57.3161 34.7159 57.048 34.831 56.8249 35.0059C56.6042 35.1775 56.4428 35.3906 56.3405 35.6452C56.2406 35.8964 56.2163 36.1676 56.2676 36.4585L56.9868 40.5376L55.9964 40.7123ZM60.7001 35.8847L61.3839 39.7623L60.3935 39.937L59.2568 33.491L60.2137 33.3222L60.3913 34.3294L60.4752 34.3146C60.5686 33.9607 60.7516 33.6572 61.0243 33.4043C61.2966 33.1486 61.6761 32.9778 62.1629 32.892C62.5993 32.815 62.997 32.8372 63.3559 32.9586C63.7144 33.0771 64.0163 33.3008 64.2618 33.6296C64.5068 33.9557 64.6776 34.3929 64.7743 34.9413L65.4965 39.0372L64.5061 39.2118L63.7958 35.183C63.7065 34.6766 63.5054 34.3053 63.1926 34.0691C62.8793 33.8301 62.4932 33.7511 62.0344 33.832C61.7183 33.8877 61.4478 34.0061 61.2229 34.1871C61.0009 34.3676 60.8417 34.6019 60.7454 34.8901C60.6491 35.1782 60.634 35.5098 60.7001 35.8847ZM67.3063 38.718L66.1697 32.272L67.1601 32.0974L68.2967 38.5434L67.3063 38.718ZM66.4839 31.1089C66.2909 31.1429 66.1128 31.1065 65.9497 30.9997C65.7894 30.8924 65.693 30.7464 65.6605 30.5618C65.6279 30.3771 65.6686 30.2069 65.7825 30.0513C65.8992 29.8951 66.0541 29.8 66.2471 29.766C66.4401 29.7319 66.6168 29.7686 66.7771 29.8759C66.9402 29.9827 67.038 30.1285 67.0705 30.3131C67.1031 30.4978 67.061 30.6682 66.9443 30.8243C66.8304 30.98 66.6769 31.0749 66.4839 31.1089ZM73.7946 32.4161L72.9493 32.8248C72.8672 32.6863 72.7593 32.5568 72.6255 32.4362C72.494 32.3122 72.3278 32.2204 72.1269 32.1606C71.926 32.1008 71.6814 32.0964 71.3932 32.1472C70.9988 32.2167 70.6861 32.3656 70.4551 32.5938C70.2265 32.8188 70.1366 33.0697 70.1855 33.3467C70.2289 33.5929 70.3527 33.7716 70.5569 33.8827C70.7611 33.9938 71.0619 34.0634 71.4591 34.0914L72.4574 34.1577C73.0584 34.196 73.5256 34.3343 73.859 34.5726C74.1919 34.8082 74.398 35.1511 74.4775 35.6016C74.5426 35.9709 74.4945 36.3198 74.3331 36.6482C74.1746 36.9762 73.9213 37.2574 73.5732 37.4919C73.2251 37.7263 72.8007 37.8877 72.2999 37.976C71.6424 38.0919 71.0731 38.0452 70.5919 37.8358C70.1107 37.6264 69.7645 37.2576 69.5531 36.7295L70.4517 36.3287C70.6024 36.6599 70.8175 36.8902 71.0971 37.0198C71.3795 37.1488 71.7235 37.1776 72.1292 37.1061C72.5908 37.0247 72.94 36.8621 73.1769 36.6184C73.416 36.3715 73.5112 36.1095 73.4624 35.8325C73.4229 35.6087 73.3115 35.435 73.1282 35.3116C72.9444 35.1853 72.6836 35.1131 72.3457 35.0947L71.227 35.0324C70.612 34.9966 70.1401 34.8562 69.8113 34.6113C69.4848 34.3631 69.2824 34.0165 69.2039 33.5717C69.1398 33.208 69.1852 32.8683 69.3401 32.5525C69.4978 32.2362 69.7403 31.967 70.0675 31.7449C70.3974 31.5222 70.7891 31.371 71.2423 31.2911C71.8802 31.1786 72.4056 31.2302 72.8187 31.4458C73.2345 31.661 73.5598 31.9844 73.7946 32.4161ZM76.5917 33.0825L77.2754 36.9602L76.285 37.1349L74.7695 28.5402L75.7599 28.3655L76.3164 31.5214L76.4003 31.5066C76.4927 31.147 76.6727 30.8427 76.9403 30.5936C77.2103 30.3412 77.5984 30.1703 78.1048 30.081C78.5441 30.0036 78.9443 30.0239 79.3055 30.1419C79.6662 30.2572 79.9693 30.4792 80.2148 30.808C80.4626 31.1336 80.6354 31.5733 80.733 32.1273L81.4553 36.2232L80.4649 36.3978L79.7545 32.3691C79.6642 31.8571 79.4615 31.4846 79.1464 31.2517C78.8336 31.0155 78.4436 30.9386 77.9763 31.021C77.6518 31.0782 77.3729 31.1981 77.1397 31.3806C76.9093 31.5625 76.7431 31.7981 76.6412 32.0872C76.5421 32.3759 76.5256 32.7076 76.5917 33.0825Z" fill="#9C7585"/>
<path d="M42.732 43.0512L41.2165 34.4565L46.3699 33.5478L46.5327 34.471L42.42 35.1962L42.9321 38.1003L46.6587 37.4432L46.8215 38.3664L43.0949 39.0235L43.7727 42.8677L42.732 43.0512ZM52.7273 38.5713L52.0554 34.7608L53.0458 34.5861L54.1825 41.0321L53.192 41.2068L52.9997 40.1157L52.9325 40.1275C52.8391 40.4815 52.6532 40.8013 52.3747 41.0869C52.0957 41.3698 51.7128 41.5541 51.226 41.64C50.8232 41.711 50.4495 41.686 50.1051 41.565C49.7602 41.4412 49.4666 41.216 49.2244 40.8895C48.9817 40.5602 48.812 40.1213 48.7153 39.573L47.9931 35.4771L48.9835 35.3024L49.6939 39.3312C49.7768 39.8012 49.9744 40.1529 50.2867 40.3863C50.6018 40.6192 50.965 40.6994 51.3763 40.6269C51.6225 40.5835 51.8618 40.4764 52.0942 40.3056C52.3294 40.1343 52.5107 39.9033 52.6383 39.6125C52.7687 39.3212 52.7984 38.9742 52.7273 38.5713ZM55.9964 40.7123L54.8598 34.2663L55.8167 34.0976L55.9883 35.0712L56.0555 35.0593C56.1168 34.7197 56.2838 34.4234 56.5565 34.1705C56.8292 33.9176 57.1586 33.7571 57.5447 33.689C57.6174 33.6762 57.7086 33.6615 57.8182 33.6451C57.9278 33.6287 58.0111 33.6183 58.068 33.614L58.2456 34.6212C58.2106 34.6188 58.1314 34.6197 58.0082 34.6242C57.8872 34.6253 57.761 34.6374 57.6295 34.6606C57.3161 34.7159 57.048 34.831 56.8249 35.0059C56.6042 35.1775 56.4428 35.3906 56.3405 35.6452C56.2406 35.8964 56.2163 36.1676 56.2676 36.4585L56.9868 40.5376L55.9964 40.7123ZM60.7001 35.8847L61.3839 39.7623L60.3935 39.937L59.2568 33.491L60.2137 33.3222L60.3913 34.3294L60.4752 34.3146C60.5686 33.9607 60.7516 33.6572 61.0243 33.4043C61.2966 33.1486 61.6761 32.9778 62.1629 32.892C62.5993 32.815 62.997 32.8372 63.3559 32.9586C63.7144 33.0771 64.0163 33.3008 64.2618 33.6296C64.5068 33.9557 64.6776 34.3929 64.7743 34.9413L65.4965 39.0372L64.5061 39.2118L63.7958 35.183C63.7065 34.6766 63.5054 34.3053 63.1926 34.0691C62.8793 33.8301 62.4932 33.7511 62.0344 33.832C61.7183 33.8877 61.4478 34.0061 61.2229 34.1871C61.0009 34.3676 60.8417 34.6019 60.7454 34.8901C60.6491 35.1782 60.634 35.5098 60.7001 35.8847ZM67.3063 38.718L66.1697 32.272L67.1601 32.0974L68.2967 38.5434L67.3063 38.718ZM66.4839 31.1089C66.2909 31.1429 66.1128 31.1065 65.9497 30.9997C65.7894 30.8924 65.693 30.7464 65.6605 30.5618C65.6279 30.3771 65.6686 30.2069 65.7825 30.0513C65.8992 29.8951 66.0541 29.8 66.2471 29.766C66.4401 29.7319 66.6168 29.7686 66.7771 29.8759C66.9402 29.9827 67.038 30.1285 67.0705 30.3131C67.1031 30.4978 67.061 30.6682 66.9443 30.8243C66.8304 30.98 66.6769 31.0749 66.4839 31.1089ZM73.7946 32.4161L72.9493 32.8248C72.8672 32.6863 72.7593 32.5568 72.6255 32.4362C72.494 32.3122 72.3278 32.2204 72.1269 32.1606C71.926 32.1008 71.6814 32.0964 71.3932 32.1472C70.9988 32.2167 70.6861 32.3656 70.4551 32.5938C70.2265 32.8188 70.1366 33.0697 70.1855 33.3467C70.2289 33.5929 70.3527 33.7716 70.5569 33.8827C70.7611 33.9938 71.0619 34.0634 71.4591 34.0914L72.4574 34.1577C73.0584 34.196 73.5256 34.3343 73.859 34.5726C74.1919 34.8082 74.398 35.1511 74.4775 35.6016C74.5426 35.9709 74.4945 36.3198 74.3331 36.6482C74.1746 36.9762 73.9213 37.2574 73.5732 37.4919C73.2251 37.7263 72.8007 37.8877 72.2999 37.976C71.6424 38.0919 71.0731 38.0452 70.5919 37.8358C70.1107 37.6264 69.7645 37.2576 69.5531 36.7295L70.4517 36.3287C70.6024 36.6599 70.8175 36.8902 71.0971 37.0198C71.3795 37.1488 71.7235 37.1776 72.1292 37.1061C72.5908 37.0247 72.94 36.8621 73.1769 36.6184C73.416 36.3715 73.5112 36.1095 73.4624 35.8325C73.4229 35.6087 73.3115 35.435 73.1282 35.3116C72.9444 35.1853 72.6836 35.1131 72.3457 35.0947L71.227 35.0324C70.612 34.9966 70.1401 34.8562 69.8113 34.6113C69.4848 34.3631 69.2824 34.0165 69.2039 33.5717C69.1398 33.208 69.1852 32.8683 69.3401 32.5525C69.4978 32.2362 69.7403 31.967 70.0675 31.7449C70.3974 31.5222 70.7891 31.371 71.2423 31.2911C71.8802 31.1786 72.4056 31.2302 72.8187 31.4458C73.2345 31.661 73.5598 31.9844 73.7946 32.4161ZM76.5917 33.0825L77.2754 36.9602L76.285 37.1349L74.7695 28.5402L75.7599 28.3655L76.3164 31.5214L76.4003 31.5066C76.4927 31.147 76.6727 30.8427 76.9403 30.5936C77.2103 30.3412 77.5984 30.1703 78.1048 30.081C78.5441 30.0036 78.9443 30.0239 79.3055 30.1419C79.6662 30.2572 79.9693 30.4792 80.2148 30.808C80.4626 31.1336 80.6354 31.5733 80.733 32.1273L81.4553 36.2232L80.4649 36.3978L79.7545 32.3691C79.6642 31.8571 79.4615 31.4846 79.1464 31.2517C78.8336 31.0155 78.4436 30.9386 77.9763 31.021C77.6518 31.0782 77.3729 31.1981 77.1397 31.3806C76.9093 31.5625 76.7431 31.7981 76.6412 32.0872C76.5421 32.3759 76.5256 32.7076 76.5917 33.0825Z" fill="black" fill-opacity="0.2"/>
<path d="M42.732 43.0512L41.2165 34.4565L46.3699 33.5478L46.5327 34.471L42.42 35.1962L42.9321 38.1003L46.6587 37.4432L46.8215 38.3664L43.0949 39.0235L43.7727 42.8677L42.732 43.0512ZM52.7273 38.5713L52.0554 34.7608L53.0458 34.5861L54.1825 41.0321L53.192 41.2068L52.9997 40.1157L52.9325 40.1275C52.8391 40.4815 52.6532 40.8013 52.3747 41.0869C52.0957 41.3698 51.7128 41.5541 51.226 41.64C50.8232 41.711 50.4495 41.686 50.1051 41.565C49.7602 41.4412 49.4666 41.216 49.2244 40.8895C48.9817 40.5602 48.812 40.1213 48.7153 39.573L47.9931 35.4771L48.9835 35.3024L49.6939 39.3312C49.7768 39.8012 49.9744 40.1529 50.2867 40.3863C50.6018 40.6192 50.965 40.6994 51.3763 40.6269C51.6225 40.5835 51.8618 40.4764 52.0942 40.3056C52.3294 40.1343 52.5107 39.9033 52.6383 39.6125C52.7687 39.3212 52.7984 38.9742 52.7273 38.5713ZM55.9964 40.7123L54.8598 34.2663L55.8167 34.0976L55.9883 35.0712L56.0555 35.0593C56.1168 34.7197 56.2838 34.4234 56.5565 34.1705C56.8292 33.9176 57.1586 33.7571 57.5447 33.689C57.6174 33.6762 57.7086 33.6615 57.8182 33.6451C57.9278 33.6287 58.0111 33.6183 58.068 33.614L58.2456 34.6212C58.2106 34.6188 58.1314 34.6197 58.0082 34.6242C57.8872 34.6253 57.761 34.6374 57.6295 34.6606C57.3161 34.7159 57.048 34.831 56.8249 35.0059C56.6042 35.1775 56.4428 35.3906 56.3405 35.6452C56.2406 35.8964 56.2163 36.1676 56.2676 36.4585L56.9868 40.5376L55.9964 40.7123ZM60.7001 35.8847L61.3839 39.7623L60.3935 39.937L59.2568 33.491L60.2137 33.3222L60.3913 34.3294L60.4752 34.3146C60.5686 33.9607 60.7516 33.6572 61.0243 33.4043C61.2966 33.1486 61.6761 32.9778 62.1629 32.892C62.5993 32.815 62.997 32.8372 63.3559 32.9586C63.7144 33.0771 64.0163 33.3008 64.2618 33.6296C64.5068 33.9557 64.6776 34.3929 64.7743 34.9413L65.4965 39.0372L64.5061 39.2118L63.7958 35.183C63.7065 34.6766 63.5054 34.3053 63.1926 34.0691C62.8793 33.8301 62.4932 33.7511 62.0344 33.832C61.7183 33.8877 61.4478 34.0061 61.2229 34.1871C61.0009 34.3676 60.8417 34.6019 60.7454 34.8901C60.6491 35.1782 60.634 35.5098 60.7001 35.8847ZM67.3063 38.718L66.1697 32.272L67.1601 32.0974L68.2967 38.5434L67.3063 38.718ZM66.4839 31.1089C66.2909 31.1429 66.1128 31.1065 65.9497 30.9997C65.7894 30.8924 65.693 30.7464 65.6605 30.5618C65.6279 30.3771 65.6686 30.2069 65.7825 30.0513C65.8992 29.8951 66.0541 29.8 66.2471 29.766C66.4401 29.7319 66.6168 29.7686 66.7771 29.8759C66.9402 29.9827 67.038 30.1285 67.0705 30.3131C67.1031 30.4978 67.061 30.6682 66.9443 30.8243C66.8304 30.98 66.6769 31.0749 66.4839 31.1089ZM73.7946 32.4161L72.9493 32.8248C72.8672 32.6863 72.7593 32.5568 72.6255 32.4362C72.494 32.3122 72.3278 32.2204 72.1269 32.1606C71.926 32.1008 71.6814 32.0964 71.3932 32.1472C70.9988 32.2167 70.6861 32.3656 70.4551 32.5938C70.2265 32.8188 70.1366 33.0697 70.1855 33.3467C70.2289 33.5929 70.3527 33.7716 70.5569 33.8827C70.7611 33.9938 71.0619 34.0634 71.4591 34.0914L72.4574 34.1577C73.0584 34.196 73.5256 34.3343 73.859 34.5726C74.1919 34.8082 74.398 35.1511 74.4775 35.6016C74.5426 35.9709 74.4945 36.3198 74.3331 36.6482C74.1746 36.9762 73.9213 37.2574 73.5732 37.4919C73.2251 37.7263 72.8007 37.8877 72.2999 37.976C71.6424 38.0919 71.0731 38.0452 70.5919 37.8358C70.1107 37.6264 69.7645 37.2576 69.5531 36.7295L70.4517 36.3287C70.6024 36.6599 70.8175 36.8902 71.0971 37.0198C71.3795 37.1488 71.7235 37.1776 72.1292 37.1061C72.5908 37.0247 72.94 36.8621 73.1769 36.6184C73.416 36.3715 73.5112 36.1095 73.4624 35.8325C73.4229 35.6087 73.3115 35.435 73.1282 35.3116C72.9444 35.1853 72.6836 35.1131 72.3457 35.0947L71.227 35.0324C70.612 34.9966 70.1401 34.8562 69.8113 34.6113C69.4848 34.3631 69.2824 34.0165 69.2039 33.5717C69.1398 33.208 69.1852 32.8683 69.3401 32.5525C69.4978 32.2362 69.7403 31.967 70.0675 31.7449C70.3974 31.5222 70.7891 31.371 71.2423 31.2911C71.8802 31.1786 72.4056 31.2302 72.8187 31.4458C73.2345 31.661 73.5598 31.9844 73.7946 32.4161ZM76.5917 33.0825L77.2754 36.9602L76.285 37.1349L74.7695 28.5402L75.7599 28.3655L76.3164 31.5214L76.4003 31.5066C76.4927 31.147 76.6727 30.8427 76.9403 30.5936C77.2103 30.3412 77.5984 30.1703 78.1048 30.081C78.5441 30.0036 78.9443 30.0239 79.3055 30.1419C79.6662 30.2572 79.9693 30.4792 80.2148 30.808C80.4626 31.1336 80.6354 31.5733 80.733 32.1273L81.4553 36.2232L80.4649 36.3978L79.7545 32.3691C79.6642 31.8571 79.4615 31.4846 79.1464 31.2517C78.8336 31.0155 78.4436 30.9386 77.9763 31.021C77.6518 31.0782 77.3729 31.1981 77.1397 31.3806C76.9093 31.5625 76.7431 31.7981 76.6412 32.0872C76.5421 32.3759 76.5256 32.7076 76.5917 33.0825Z" fill="black" fill-opacity="0.2"/>
<path d="M42.732 43.0512L41.2165 34.4565L46.3699 33.5478L46.5327 34.471L42.42 35.1962L42.9321 38.1003L46.6587 37.4432L46.8215 38.3664L43.0949 39.0235L43.7727 42.8677L42.732 43.0512ZM52.7273 38.5713L52.0554 34.7608L53.0458 34.5861L54.1825 41.0321L53.192 41.2068L52.9997 40.1157L52.9325 40.1275C52.8391 40.4815 52.6532 40.8013 52.3747 41.0869C52.0957 41.3698 51.7128 41.5541 51.226 41.64C50.8232 41.711 50.4495 41.686 50.1051 41.565C49.7602 41.4412 49.4666 41.216 49.2244 40.8895C48.9817 40.5602 48.812 40.1213 48.7153 39.573L47.9931 35.4771L48.9835 35.3024L49.6939 39.3312C49.7768 39.8012 49.9744 40.1529 50.2867 40.3863C50.6018 40.6192 50.965 40.6994 51.3763 40.6269C51.6225 40.5835 51.8618 40.4764 52.0942 40.3056C52.3294 40.1343 52.5107 39.9033 52.6383 39.6125C52.7687 39.3212 52.7984 38.9742 52.7273 38.5713ZM55.9964 40.7123L54.8598 34.2663L55.8167 34.0976L55.9883 35.0712L56.0555 35.0593C56.1168 34.7197 56.2838 34.4234 56.5565 34.1705C56.8292 33.9176 57.1586 33.7571 57.5447 33.689C57.6174 33.6762 57.7086 33.6615 57.8182 33.6451C57.9278 33.6287 58.0111 33.6183 58.068 33.614L58.2456 34.6212C58.2106 34.6188 58.1314 34.6197 58.0082 34.6242C57.8872 34.6253 57.761 34.6374 57.6295 34.6606C57.3161 34.7159 57.048 34.831 56.8249 35.0059C56.6042 35.1775 56.4428 35.3906 56.3405 35.6452C56.2406 35.8964 56.2163 36.1676 56.2676 36.4585L56.9868 40.5376L55.9964 40.7123ZM60.7001 35.8847L61.3839 39.7623L60.3935 39.937L59.2568 33.491L60.2137 33.3222L60.3913 34.3294L60.4752 34.3146C60.5686 33.9607 60.7516 33.6572 61.0243 33.4043C61.2966 33.1486 61.6761 32.9778 62.1629 32.892C62.5993 32.815 62.997 32.8372 63.3559 32.9586C63.7144 33.0771 64.0163 33.3008 64.2618 33.6296C64.5068 33.9557 64.6776 34.3929 64.7743 34.9413L65.4965 39.0372L64.5061 39.2118L63.7958 35.183C63.7065 34.6766 63.5054 34.3053 63.1926 34.0691C62.8793 33.8301 62.4932 33.7511 62.0344 33.832C61.7183 33.8877 61.4478 34.0061 61.2229 34.1871C61.0009 34.3676 60.8417 34.6019 60.7454 34.8901C60.6491 35.1782 60.634 35.5098 60.7001 35.8847ZM67.3063 38.718L66.1697 32.272L67.1601 32.0974L68.2967 38.5434L67.3063 38.718ZM66.4839 31.1089C66.2909 31.1429 66.1128 31.1065 65.9497 30.9997C65.7894 30.8924 65.693 30.7464 65.6605 30.5618C65.6279 30.3771 65.6686 30.2069 65.7825 30.0513C65.8992 29.8951 66.0541 29.8 66.2471 29.766C66.4401 29.7319 66.6168 29.7686 66.7771 29.8759C66.9402 29.9827 67.038 30.1285 67.0705 30.3131C67.1031 30.4978 67.061 30.6682 66.9443 30.8243C66.8304 30.98 66.6769 31.0749 66.4839 31.1089ZM73.7946 32.4161L72.9493 32.8248C72.8672 32.6863 72.7593 32.5568 72.6255 32.4362C72.494 32.3122 72.3278 32.2204 72.1269 32.1606C71.926 32.1008 71.6814 32.0964 71.3932 32.1472C70.9988 32.2167 70.6861 32.3656 70.4551 32.5938C70.2265 32.8188 70.1366 33.0697 70.1855 33.3467C70.2289 33.5929 70.3527 33.7716 70.5569 33.8827C70.7611 33.9938 71.0619 34.0634 71.4591 34.0914L72.4574 34.1577C73.0584 34.196 73.5256 34.3343 73.859 34.5726C74.1919 34.8082 74.398 35.1511 74.4775 35.6016C74.5426 35.9709 74.4945 36.3198 74.3331 36.6482C74.1746 36.9762 73.9213 37.2574 73.5732 37.4919C73.2251 37.7263 72.8007 37.8877 72.2999 37.976C71.6424 38.0919 71.0731 38.0452 70.5919 37.8358C70.1107 37.6264 69.7645 37.2576 69.5531 36.7295L70.4517 36.3287C70.6024 36.6599 70.8175 36.8902 71.0971 37.0198C71.3795 37.1488 71.7235 37.1776 72.1292 37.1061C72.5908 37.0247 72.94 36.8621 73.1769 36.6184C73.416 36.3715 73.5112 36.1095 73.4624 35.8325C73.4229 35.6087 73.3115 35.435 73.1282 35.3116C72.9444 35.1853 72.6836 35.1131 72.3457 35.0947L71.227 35.0324C70.612 34.9966 70.1401 34.8562 69.8113 34.6113C69.4848 34.3631 69.2824 34.0165 69.2039 33.5717C69.1398 33.208 69.1852 32.8683 69.3401 32.5525C69.4978 32.2362 69.7403 31.967 70.0675 31.7449C70.3974 31.5222 70.7891 31.371 71.2423 31.2911C71.8802 31.1786 72.4056 31.2302 72.8187 31.4458C73.2345 31.661 73.5598 31.9844 73.7946 32.4161ZM76.5917 33.0825L77.2754 36.9602L76.285 37.1349L74.7695 28.5402L75.7599 28.3655L76.3164 31.5214L76.4003 31.5066C76.4927 31.147 76.6727 30.8427 76.9403 30.5936C77.2103 30.3412 77.5984 30.1703 78.1048 30.081C78.5441 30.0036 78.9443 30.0239 79.3055 30.1419C79.6662 30.2572 79.9693 30.4792 80.2148 30.808C80.4626 31.1336 80.6354 31.5733 80.733 32.1273L81.4553 36.2232L80.4649 36.3978L79.7545 32.3691C79.6642 31.8571 79.4615 31.4846 79.1464 31.2517C78.8336 31.0155 78.4436 30.9386 77.9763 31.021C77.6518 31.0782 77.3729 31.1981 77.1397 31.3806C76.9093 31.5625 76.7431 31.7981 76.6412 32.0872C76.5421 32.3759 76.5256 32.7076 76.5917 33.0825Z" fill="black" fill-opacity="0.2"/>
<path d="M42.732 43.0512L41.7472 43.2248L41.9208 44.2096L42.9056 44.036L42.732 43.0512ZM41.2165 34.4565L41.0428 33.4717L40.058 33.6453L40.2317 34.6301L41.2165 34.4565ZM46.3699 33.5478L47.3547 33.3741L47.1811 32.3893L46.1963 32.563L46.3699 33.5478ZM46.5327 34.471L46.7064 35.4559L47.6912 35.2822L47.5175 34.2974L46.5327 34.471ZM42.42 35.1962L42.2464 34.2114L41.2616 34.3851L41.4352 35.3699L42.42 35.1962ZM42.9321 38.1003L41.9473 38.2739L42.121 39.2587L43.1058 39.0851L42.9321 38.1003ZM46.6587 37.4432L47.6435 37.2695L47.4699 36.2847L46.4851 36.4584L46.6587 37.4432ZM46.8215 38.3664L46.9952 39.3513L47.98 39.1776L47.8063 38.1928L46.8215 38.3664ZM43.0949 39.0235L42.9213 38.0387L41.9364 38.2124L42.1101 39.1972L43.0949 39.0235ZM43.7727 42.8677L43.9464 43.8525L44.9312 43.6788L44.7575 42.694L43.7727 42.8677ZM43.7168 42.8775L42.2013 34.2828L40.2317 34.6301L41.7472 43.2248L43.7168 42.8775ZM41.3901 35.4413L46.5436 34.5326L46.1963 32.563L41.0428 33.4717L41.3901 35.4413ZM45.3851 33.7214L45.5479 34.6447L47.5175 34.2974L47.3547 33.3741L45.3851 33.7214ZM46.3591 33.4862L42.2464 34.2114L42.5937 36.181L46.7064 35.4559L46.3591 33.4862ZM41.4352 35.3699L41.9473 38.2739L43.9169 37.9266L43.4049 35.0226L41.4352 35.3699ZM43.1058 39.0851L46.8324 38.428L46.4851 36.4584L42.7585 37.1155L43.1058 39.0851ZM45.6739 37.6168L45.8367 38.5401L47.8063 38.1928L47.6435 37.2695L45.6739 37.6168ZM46.6479 37.3816L42.9213 38.0387L43.2686 40.0084L46.9952 39.3513L46.6479 37.3816ZM42.1101 39.1972L42.7879 43.0413L44.7575 42.694L44.0797 38.8499L42.1101 39.1972ZM43.5991 41.8828L42.5583 42.0664L42.9056 44.036L43.9464 43.8525L43.5991 41.8828ZM52.0554 34.7608L51.8818 33.776L50.897 33.9496L51.0706 34.9344L52.0554 34.7608ZM53.0458 34.5861L54.0307 34.4125L53.857 33.4277L52.8722 33.6013L53.0458 34.5861ZM54.1825 41.0321L54.3561 42.0169L55.3409 41.8433L55.1673 40.8585L54.1825 41.0321ZM53.192 41.2068L52.2072 41.3804L52.3809 42.3652L53.3657 42.1916L53.192 41.2068ZM52.9997 40.1157L53.9845 39.942L53.8108 38.9572L52.826 39.1308L52.9997 40.1157ZM52.9325 40.1275L52.7589 39.1427L52.1287 39.2538L51.9656 39.8725L52.9325 40.1275ZM52.3747 41.0869L53.0867 41.7892L53.0908 41.785L52.3747 41.0869ZM50.1051 41.565L49.7672 42.5063L49.7736 42.5085L50.1051 41.565ZM49.2244 40.8895L48.4194 41.4827L48.4212 41.4852L49.2244 40.8895ZM47.9931 35.4771L47.8195 34.4923L46.8347 34.6659L47.0083 35.6507L47.9931 35.4771ZM48.9835 35.3024L49.9683 35.1288L49.7947 34.144L48.8099 34.3176L48.9835 35.3024ZM50.2867 40.3863L49.6881 41.1874L49.6923 41.1905L50.2867 40.3863ZM52.0942 40.3056L51.5055 39.4972L51.502 39.4998L52.0942 40.3056ZM52.6383 39.6125L51.7256 39.2039L51.7226 39.2107L52.6383 39.6125ZM53.7121 38.3976L53.0402 34.5871L51.0706 34.9344L51.7425 38.7449L53.7121 38.3976ZM52.2291 35.7456L53.2195 35.5709L52.8722 33.6013L51.8818 33.776L52.2291 35.7456ZM52.061 34.7598L53.1976 41.2058L55.1673 40.8585L54.0307 34.4125L52.061 34.7598ZM54.0088 40.0473L53.0184 40.222L53.3657 42.1916L54.3561 42.0169L54.0088 40.0473ZM54.1769 41.0331L53.9845 39.942L52.0148 40.2893L52.2072 41.3804L54.1769 41.0331ZM52.826 39.1308L52.7589 39.1427L53.1062 41.1123L53.1733 41.1005L52.826 39.1308ZM51.9656 39.8725C51.9201 40.0448 51.8279 40.2154 51.6587 40.3889L53.0908 41.785C53.4786 41.3872 53.7582 40.9181 53.8994 40.3825L51.9656 39.8725ZM51.6628 40.3847C51.5618 40.4871 51.3852 40.5965 51.0524 40.6552L51.3997 42.6248C52.0405 42.5118 52.6297 42.2525 53.0867 41.7892L51.6628 40.3847ZM51.0524 40.6552C50.7979 40.7001 50.6001 40.679 50.4366 40.6216L49.7736 42.5085C50.2989 42.693 50.8485 42.722 51.3997 42.6248L51.0524 40.6552ZM50.4429 40.6238C50.3039 40.5739 50.1655 40.4798 50.0276 40.2938L48.4212 41.4852C48.7677 41.9523 49.2165 42.3085 49.7673 42.5062L50.4429 40.6238ZM50.0294 40.2963C49.9051 40.1275 49.7792 39.8478 49.7001 39.3993L47.7305 39.7466C47.8448 40.3948 48.0583 40.9928 48.4194 41.4827L50.0294 40.2963ZM49.7001 39.3993L48.9779 35.3034L47.0083 35.6507L47.7305 39.7466L49.7001 39.3993ZM48.1668 36.4619L49.1572 36.2872L48.8099 34.3176L47.8195 34.4923L48.1668 36.4619ZM47.9987 35.4761L48.7091 39.5048L50.6787 39.1575L49.9683 35.1288L47.9987 35.4761ZM48.7091 39.5048C48.8257 40.1663 49.1283 40.7691 49.6881 41.1874L50.8853 39.5853C50.8204 39.5368 50.7278 39.4361 50.6787 39.1575L48.7091 39.5048ZM49.6923 41.1905C50.2435 41.5979 50.8885 41.7283 51.5499 41.6117L51.2026 39.6421C51.0415 39.6705 50.9601 39.6405 50.8811 39.5821L49.6923 41.1905ZM51.5499 41.6117C51.9692 41.5378 52.3491 41.3592 52.6864 41.1114L51.502 39.4998C51.3744 39.5935 51.2757 39.6292 51.2026 39.6421L51.5499 41.6117ZM52.6829 41.114C53.074 40.8291 53.3621 40.4519 53.5541 40.0143L51.7226 39.2107C51.6594 39.3547 51.5847 39.4395 51.5055 39.4973L52.6829 41.114ZM53.5511 40.0211C53.7834 39.5021 53.8082 38.9422 53.7121 38.3976L51.7425 38.7449C51.7886 39.0062 51.754 39.1404 51.7256 39.204L53.5511 40.0211ZM55.9964 40.7123L55.0116 40.8859L55.1853 41.8707L56.1701 41.6971L55.9964 40.7123ZM54.8598 34.2663L54.6862 33.2815L53.7014 33.4551L53.875 34.4399L54.8598 34.2663ZM55.8167 34.0976L56.8015 33.9239L56.6278 32.9391L55.643 33.1127L55.8167 34.0976ZM55.9883 35.0712L55.0035 35.2448L55.1772 36.2296L56.162 36.056L55.9883 35.0712ZM56.0555 35.0593L56.2291 36.0441L56.9158 35.9231L57.0396 35.2368L56.0555 35.0593ZM56.5565 34.1705L55.8765 33.4372L55.8765 33.4372L56.5565 34.1705ZM58.068 33.614L59.0529 33.4404L58.8957 32.5492L57.9933 32.6168L58.068 33.614ZM58.2456 34.6212L58.1753 35.6187L59.4529 35.7089L59.2304 34.4476L58.2456 34.6212ZM58.0082 34.6242L58.0175 35.6241L58.0308 35.624L58.044 35.6235L58.0082 34.6242ZM56.8249 35.0059L57.4388 35.7953L57.4421 35.7927L56.8249 35.0059ZM56.3405 35.6452L55.4125 35.2725L55.4113 35.2756L56.3405 35.6452ZM56.9868 40.5376L57.1605 41.5225L58.1453 41.3488L57.9717 40.364L56.9868 40.5376ZM56.9812 40.5386L55.8446 34.0926L53.875 34.4399L55.0116 40.8859L56.9812 40.5386ZM55.0335 35.2511L55.9903 35.0824L55.643 33.1127L54.6862 33.2815L55.0335 35.2511ZM54.8319 34.2712L55.0035 35.2448L56.9731 34.8975L56.8015 33.9239L54.8319 34.2712ZM56.162 36.056L56.2291 36.0441L55.8818 34.0745L55.8147 34.0864L56.162 36.056ZM57.0396 35.2368C57.0593 35.1274 57.1095 35.0214 57.2364 34.9037L55.8765 33.4372C55.458 33.8254 55.1742 34.3119 55.0714 34.8818L57.0396 35.2368ZM57.2364 34.9037C57.3603 34.7889 57.511 34.7104 57.7183 34.6738L57.3711 32.7042C56.8063 32.8038 56.2981 33.0463 55.8765 33.4372L57.2364 34.9037ZM57.7183 34.6738C57.7796 34.663 57.8617 34.6498 57.9666 34.634L57.6699 32.6562C57.5555 32.6733 57.4552 32.6894 57.3711 32.7042L57.7183 34.6738ZM57.9666 34.634C58.0699 34.6185 58.1237 34.6127 58.1428 34.6112L57.9933 32.6168C57.8985 32.6239 57.7858 32.6388 57.6699 32.6562L57.9666 34.634ZM57.0832 33.7877L57.2608 34.7949L59.2304 34.4476L59.0529 33.4404L57.0832 33.7877ZM58.316 33.6237C58.2171 33.6167 58.0805 33.6209 57.9723 33.6248L58.044 35.6235C58.1016 35.6214 58.1436 35.6204 58.1723 35.62C58.1866 35.6198 58.1947 35.6199 58.198 35.6199C58.2033 35.62 58.1936 35.62 58.1753 35.6187L58.316 33.6237ZM57.9988 33.6242C57.8174 33.6259 57.6361 33.644 57.4558 33.6758L57.8031 35.6454C57.8859 35.6308 57.957 35.6247 58.0175 35.6241L57.9988 33.6242ZM57.4558 33.6758C57.0008 33.7561 56.5753 33.9308 56.2078 34.219L57.4421 35.7927C57.5206 35.7312 57.6315 35.6757 57.8031 35.6454L57.4558 33.6758ZM56.2111 34.2164C55.8534 34.4945 55.5821 34.8504 55.4126 35.2725L57.2685 36.0178C57.3034 35.9308 57.355 35.8604 57.4388 35.7953L56.2111 34.2164ZM55.4113 35.2756C55.2365 35.7151 55.2023 36.176 55.2828 36.6322L57.2524 36.2849C57.2302 36.1591 57.2447 36.0778 57.2697 36.0147L55.4113 35.2756ZM55.2828 36.6322L56.002 40.7113L57.9717 40.364L57.2524 36.2849L55.2828 36.6322ZM56.8132 39.5528L55.8228 39.7275L56.1701 41.6971L57.1605 41.5225L56.8132 39.5528ZM61.3839 39.7623L61.5575 40.7471L62.5423 40.5735L62.3687 39.5887L61.3839 39.7623ZM60.3935 39.937L59.4086 40.1106L59.5823 41.0954L60.5671 40.9218L60.3935 39.937ZM59.2568 33.491L59.0832 32.5062L58.0984 32.6798L58.272 33.6646L59.2568 33.491ZM60.2137 33.3222L61.1985 33.1486L61.0248 32.1638L60.04 32.3374L60.2137 33.3222ZM60.3913 34.3294L59.4065 34.5031L59.5801 35.4879L60.5649 35.3142L60.3913 34.3294ZM60.4752 34.3146L60.6489 35.2994L61.279 35.1883L61.4421 34.5697L60.4752 34.3146ZM61.0243 33.4043L61.7043 34.1376L61.709 34.1332L61.0243 33.4043ZM63.3559 32.9586L63.0357 33.9059L63.0419 33.908L63.3559 32.9586ZM64.2618 33.6296L63.4605 34.2279L63.4623 34.2304L64.2618 33.6296ZM65.4965 39.0372L65.6702 40.022L66.655 39.8483L66.4814 38.8635L65.4965 39.0372ZM64.5061 39.2118L63.5213 39.3854L63.695 40.3703L64.6798 40.1966L64.5061 39.2118ZM63.1926 34.0691L62.5861 34.8642L62.59 34.8672L63.1926 34.0691ZM61.2229 34.1871L60.5959 33.4082L60.5921 33.4112L61.2229 34.1871ZM60.7454 34.8901L59.797 34.5731L59.797 34.5731L60.7454 34.8901ZM59.7153 36.0583L60.399 39.936L62.3687 39.5887L61.6849 35.711L59.7153 36.0583ZM61.2102 38.7775L60.2198 38.9522L60.5671 40.9218L61.5575 40.7471L61.2102 38.7775ZM61.3783 39.7633L60.2417 33.3173L58.272 33.6646L59.4086 40.1106L61.3783 39.7633ZM59.4305 34.4758L60.3873 34.3071L60.04 32.3374L59.0832 32.5062L59.4305 34.4758ZM59.2289 33.4959L59.4065 34.5031L61.3761 34.1558L61.1985 33.1486L59.2289 33.4959ZM60.5649 35.3142L60.6489 35.2994L60.3016 33.3298L60.2176 33.3446L60.5649 35.3142ZM61.4421 34.5697C61.4863 34.4022 61.5683 34.2637 61.7043 34.1376L60.3444 32.6711C59.9349 33.0507 59.6508 33.5192 59.5083 34.0596L61.4421 34.5697ZM61.709 34.1332C61.8003 34.0475 61.9805 33.9396 62.3365 33.8768L61.9893 31.9072C61.3716 32.0161 60.7929 32.2498 60.3397 32.6754L61.709 34.1332ZM62.3365 33.8768C62.636 33.824 62.8607 33.8467 63.0357 33.9059L63.6762 32.0112C63.1334 31.8277 62.5627 31.8061 61.9893 31.9072L62.3365 33.8768ZM63.0419 33.908C63.1887 33.9565 63.3264 34.0482 63.4605 34.2279L65.0631 33.0314C64.7062 32.5534 64.24 32.1977 63.6699 32.0091L63.0419 33.908ZM63.4623 34.2304C63.5847 34.3933 63.7107 34.6678 63.7895 35.1149L65.7591 34.7676C65.6446 34.118 65.4289 33.5181 65.0613 33.0289L63.4623 34.2304ZM63.7895 35.1149L64.5117 39.2108L66.4814 38.8635L65.7591 34.7676L63.7895 35.1149ZM65.3229 38.0524L64.3325 38.227L64.6798 40.1966L65.6702 40.022L65.3229 38.0524ZM65.491 39.0381L64.7806 35.0094L62.811 35.3567L63.5213 39.3854L65.491 39.0381ZM64.7806 35.0094C64.6615 34.3338 64.3663 33.7023 63.7952 33.2711L62.59 34.8672C62.6446 34.9084 62.7515 35.0195 62.811 35.3567L64.7806 35.0094ZM63.7991 33.2741C63.2231 32.8347 62.5401 32.7274 61.8608 32.8472L62.2081 34.8168C62.4464 34.7748 62.5355 34.8256 62.5861 34.8642L63.7991 33.2741ZM61.8608 32.8472C61.3975 32.9289 60.9663 33.1099 60.5959 33.4082L61.85 34.9661C61.9292 34.9023 62.039 34.8466 62.2081 34.8168L61.8608 32.8472ZM60.5921 33.4112C60.2136 33.7189 59.9496 34.1165 59.797 34.5731L61.6939 35.2071C61.7339 35.0873 61.7882 35.0163 61.8538 34.9631L60.5921 33.4112ZM59.797 34.5731C59.6362 35.0543 59.6275 35.5601 59.7153 36.0583L61.6849 35.711C61.6406 35.4594 61.6621 35.3022 61.6939 35.2071L59.797 34.5731ZM67.3063 38.718L66.3215 38.8917L66.4952 39.8765L67.48 39.7029L67.3063 38.718ZM66.1697 32.272L65.9961 31.2872L65.0113 31.4609L65.1849 32.4457L66.1697 32.272ZM67.1601 32.0974L68.1449 31.9237L67.9713 30.9389L66.9865 31.1126L67.1601 32.0974ZM68.2967 38.5434L68.4704 39.5282L69.4552 39.3546L69.2816 38.3698L68.2967 38.5434ZM65.9497 30.9997L65.3933 31.8307L65.4017 31.8362L65.9497 30.9997ZM65.7825 30.0513L64.9814 29.4526L64.9755 29.4608L65.7825 30.0513ZM66.7771 29.8759L66.2207 30.7069L66.2291 30.7124L66.7771 29.8759ZM66.9443 30.8243L66.1432 30.2257L66.1373 30.2338L66.9443 30.8243ZM68.2912 38.5444L67.1545 32.0984L65.1849 32.4457L66.3215 38.8917L68.2912 38.5444ZM66.3434 33.2568L67.3338 33.0822L66.9865 31.1126L65.9961 31.2872L66.3434 33.2568ZM66.1753 32.271L67.3119 38.7171L69.2816 38.3698L68.1449 31.9237L66.1753 32.271ZM68.1231 37.5586L67.1327 37.7332L67.48 39.7029L68.4704 39.5282L68.1231 37.5586ZM66.3102 30.1241C66.3278 30.121 66.3623 30.1185 66.4058 30.1274C66.4495 30.1363 66.4812 30.1524 66.4977 30.1632L65.4017 31.8362C65.779 32.0834 66.2154 32.1717 66.6575 32.0937L66.3102 30.1241ZM66.5061 30.1688C66.525 30.1814 66.5595 30.2099 66.5916 30.2586C66.6241 30.3079 66.6395 30.3554 66.6453 30.3881L64.6757 30.7354C64.757 31.1969 65.014 31.5766 65.3933 31.8306L66.5061 30.1688ZM66.6453 30.3881C66.651 30.4208 66.6529 30.4707 66.6392 30.5281C66.6256 30.5849 66.6029 30.6235 66.5895 30.6418L64.9755 29.4608C64.7059 29.8292 64.5943 30.2739 64.6757 30.7354L66.6453 30.3881ZM66.5835 30.6499C66.5717 30.6657 66.5474 30.6917 66.5094 30.715C66.4715 30.7383 66.4383 30.7477 66.4208 30.7508L66.0735 28.7812C65.6313 28.8591 65.2515 29.0914 64.9815 29.4527L66.5835 30.6499ZM66.4208 30.7508C66.4033 30.7539 66.3674 30.7567 66.3213 30.7471C66.2749 30.7375 66.2402 30.7199 66.2207 30.7068L67.3335 29.045C66.955 28.7915 66.516 28.7031 66.0735 28.7812L66.4208 30.7508ZM66.2291 30.7124C66.2112 30.7007 66.1759 30.6724 66.1424 30.6226C66.1085 30.572 66.092 30.5222 66.0857 30.4868L68.0553 30.1395C67.9728 29.6711 67.7086 29.2907 67.3251 29.0394L66.2291 30.7124ZM66.0857 30.4868C66.0795 30.4514 66.0779 30.3989 66.0926 30.3397C66.1069 30.2815 66.1305 30.2428 66.1433 30.2257L67.7453 31.423C68.0198 31.0557 68.1379 30.6078 68.0553 30.1395L66.0857 30.4868ZM66.1373 30.2338C66.1511 30.2149 66.1777 30.1865 66.2181 30.1616C66.2581 30.1368 66.2928 30.1272 66.3102 30.1241L66.6575 32.0937C67.1001 32.0157 67.4824 31.7825 67.7513 31.4149L66.1373 30.2338ZM73.7946 32.4161L74.2299 33.3164L75.1743 32.8598L74.6731 31.9383L73.7946 32.4161ZM72.9493 32.8248L72.0892 33.3349L72.5578 34.1248L73.3846 33.7251L72.9493 32.8248ZM72.6255 32.4362L71.9396 33.1638L71.9476 33.1714L71.9558 33.1788L72.6255 32.4362ZM72.1269 32.1606L72.412 31.2021L72.412 31.2021L72.1269 32.1606ZM70.4551 32.5938L71.1565 33.3067L71.1581 33.3051L70.4551 32.5938ZM70.5569 33.8827L70.079 34.7611L70.079 34.7611L70.5569 33.8827ZM71.4591 34.0914L71.3887 35.0889L71.3929 35.0892L71.4591 34.0914ZM72.4574 34.1577L72.3911 35.1555L72.3939 35.1557L72.4574 34.1577ZM73.859 34.5726L73.2774 35.3861L73.2814 35.3889L73.859 34.5726ZM74.3331 36.6482L73.4356 36.2074L73.4328 36.213L74.3331 36.6482ZM70.5919 37.8358L70.9909 36.9189L70.9909 36.9189L70.5919 37.8358ZM69.5531 36.7295L69.1457 35.8162L68.2672 36.208L68.6247 37.1011L69.5531 36.7295ZM70.4517 36.3287L71.3618 35.9145L70.9507 35.0112L70.0443 35.4155L70.4517 36.3287ZM71.0971 37.0198L70.6766 37.9271L70.6814 37.9293L71.0971 37.0198ZM73.1769 36.6184L73.894 37.3154L73.8953 37.3141L73.1769 36.6184ZM73.1282 35.3116L72.562 36.1359L72.5696 36.141L73.1282 35.3116ZM72.3457 35.0947L72.29 36.0932L72.2916 36.0933L72.3457 35.0947ZM71.227 35.0324L71.1689 36.0307L71.1713 36.0308L71.227 35.0324ZM69.8113 34.6113L69.206 35.4074L69.2139 35.4132L69.8113 34.6113ZM69.3401 32.5525L68.4452 32.1062L68.4423 32.1121L69.3401 32.5525ZM70.0675 31.7449L69.5082 30.9159L69.5058 30.9175L70.0675 31.7449ZM72.8187 31.4458L72.3559 32.3323L72.3592 32.334L72.8187 31.4458ZM73.3593 31.5158L72.5141 31.9245L73.3846 33.7251L74.2299 33.3164L73.3593 31.5158ZM73.8094 32.3146C73.6702 32.0799 73.495 31.8737 73.2952 31.6936L71.9558 33.1788C72.0236 33.2399 72.0642 33.2928 72.0892 33.3349L73.8094 32.3146ZM73.3115 31.7085C73.0493 31.4614 72.7387 31.2993 72.412 31.2021L71.8418 33.1191C71.9169 33.1414 71.9387 33.163 71.9396 33.1638L73.3115 31.7085ZM72.412 31.2021C72.0153 31.0841 71.6037 31.0946 71.2196 31.1624L71.5669 33.132C71.7591 33.0981 71.8366 33.1176 71.8418 33.1191L72.412 31.2021ZM71.2196 31.1624C70.6722 31.2589 70.1584 31.4812 69.7522 31.8826L71.1581 33.3051C71.2137 33.2501 71.3253 33.1746 71.5669 33.132L71.2196 31.1624ZM69.7538 31.881C69.3288 32.2992 69.086 32.8698 69.2007 33.5204L71.1703 33.1731C71.1718 33.1816 71.1736 33.1984 71.1718 33.2214C71.17 33.2446 71.165 33.2676 71.1577 33.288C71.1426 33.3301 71.1279 33.3347 71.1565 33.3067L69.7538 31.881ZM69.2007 33.5204C69.2924 34.0404 69.585 34.4923 70.079 34.7611L71.0348 33.0043C71.0602 33.0181 71.0996 33.0479 71.1328 33.0958C71.1646 33.1417 71.1707 33.1753 71.1703 33.1731L69.2007 33.5204ZM70.079 34.7611C70.4683 34.9729 70.9364 35.057 71.3887 35.0889L71.5295 33.0939C71.369 33.0826 71.2483 33.0641 71.161 33.0439C71.1181 33.034 71.0867 33.0244 71.0651 33.0167C71.0433 33.0089 71.0343 33.004 71.0348 33.0043L70.079 34.7611ZM71.3929 35.0892L72.3911 35.1555L72.5237 33.1599L71.5254 33.0936L71.3929 35.0892ZM72.3939 35.1557C72.8906 35.1873 73.1515 35.2961 73.2774 35.3861L74.4406 33.7591C73.8997 33.3725 73.2262 33.2046 72.5209 33.1597L72.3939 35.1557ZM73.2814 35.3889C73.3722 35.4532 73.4529 35.5499 73.4927 35.7752L75.4623 35.4279C75.3432 34.7524 75.0115 34.1631 74.4366 33.7563L73.2814 35.3889ZM73.4927 35.7752C73.5219 35.9412 73.5009 36.0743 73.4356 36.2074L75.2307 37.0891C75.488 36.5652 75.5632 36.0006 75.4623 35.4279L73.4927 35.7752ZM73.4328 36.213C73.3624 36.3588 73.2385 36.5116 73.0146 36.6625L74.1319 38.3213C74.6041 38.0032 74.9869 37.5936 75.2335 37.0834L73.4328 36.213ZM73.0146 36.6625C72.8044 36.804 72.5178 36.9222 72.1262 36.9912L72.4735 38.9608C73.0836 38.8533 73.6459 38.6486 74.1319 38.3213L73.0146 36.6625ZM72.1262 36.9912C71.6098 37.0823 71.2488 37.0311 70.9909 36.9189L70.1929 38.7527C70.8974 39.0594 71.675 39.1016 72.4735 38.9608L72.1262 36.9912ZM70.9909 36.9189C70.7726 36.8238 70.6041 36.6643 70.4814 36.3579L68.6247 37.1011C68.9248 37.851 69.4489 38.429 70.1929 38.7527L70.9909 36.9189ZM69.9604 37.6428L70.859 37.242L70.0443 35.4155L69.1457 35.8162L69.9604 37.6428ZM69.5415 36.743C69.7724 37.2504 70.1422 37.6794 70.6766 37.9271L71.5175 36.1125C71.4928 36.101 71.4323 36.0694 71.3618 35.9145L69.5415 36.743ZM70.6814 37.9293C71.1996 38.1661 71.7618 38.1863 72.3028 38.0909L71.9555 36.1213C71.6851 36.1689 71.5593 36.1316 71.5128 36.1103L70.6814 37.9293ZM72.3028 38.0909C72.8947 37.9865 73.4645 37.7573 73.894 37.3154L72.4598 35.9215C72.4156 35.9669 72.2869 36.0628 71.9555 36.1213L72.3028 38.0909ZM73.8953 37.3141C74.3017 36.8944 74.5643 36.323 74.4472 35.6588L72.4776 36.0061C72.4753 35.9933 72.4737 35.9744 72.4757 35.9518C72.4776 35.9292 72.4825 35.9097 72.4877 35.8953C72.498 35.8668 72.5024 35.8775 72.4585 35.9228L73.8953 37.3141ZM74.4472 35.6588C74.3621 35.1762 74.1024 34.762 73.6868 34.4821L72.5696 36.141C72.5563 36.1321 72.5306 36.1104 72.5075 36.0744C72.4848 36.0389 72.4785 36.0113 72.4776 36.0061L74.4472 35.6588ZM73.6944 34.4873C73.3001 34.2165 72.8332 34.1197 72.3998 34.0962L72.2916 36.0933C72.4055 36.0995 72.4815 36.1136 72.5277 36.1264C72.5734 36.139 72.5785 36.1472 72.562 36.1359L73.6944 34.4873ZM72.4014 34.0963L71.2826 34.0339L71.1713 36.0308L72.29 36.0932L72.4014 34.0963ZM71.2851 34.0341C70.7734 34.0043 70.5205 33.8926 70.4087 33.8094L69.2139 35.4132C69.7597 35.8198 70.4506 35.9889 71.1689 36.0307L71.2851 34.0341ZM70.4165 33.8152C70.3114 33.7353 70.2283 33.6223 70.1888 33.3981L68.2191 33.7454C68.3365 34.4108 68.6583 34.9908 69.2061 35.4073L70.4165 33.8152ZM70.1888 33.3981C70.1595 33.232 70.1812 33.1085 70.2379 32.9929L68.4423 32.1121C68.1892 32.628 68.1202 33.184 68.2191 33.7454L70.1888 33.3981ZM70.235 32.9987C70.3074 32.8535 70.4266 32.7097 70.6291 32.5722L69.5058 30.9175C69.0539 31.2243 68.6882 31.6188 68.4452 32.1062L70.235 32.9987ZM70.6267 32.5739C70.8237 32.4409 71.0793 32.3352 71.4159 32.2759L71.0686 30.3063C70.4988 30.4067 69.9712 30.6035 69.5082 30.9159L70.6267 32.5739ZM71.4159 32.2759C71.9198 32.187 72.2019 32.2519 72.3559 32.3323L73.2815 30.5594C72.6094 30.2085 71.8406 30.1701 71.0686 30.3063L71.4159 32.2759ZM72.3592 32.334C72.5884 32.4526 72.7718 32.6285 72.9161 32.8938L74.6731 31.9383C74.3478 31.3402 73.8807 30.8693 73.2782 30.5576L72.3592 32.334ZM77.2754 36.9602L77.4491 37.945L78.4339 37.7714L78.2602 36.7866L77.2754 36.9602ZM76.285 37.1349L75.3002 37.3085L75.4739 38.2933L76.4587 38.1197L76.285 37.1349ZM74.7695 28.5402L74.5959 27.5554L73.6111 27.729L73.7847 28.7138L74.7695 28.5402ZM75.7599 28.3655L76.7448 28.1919L76.5711 27.2071L75.5863 27.3807L75.7599 28.3655ZM76.3164 31.5214L75.3316 31.695L75.5053 32.6799L76.4901 32.5062L76.3164 31.5214ZM76.4003 31.5066L76.574 32.4914L77.2086 32.3795L77.3689 31.7554L76.4003 31.5066ZM76.9403 30.5936L77.6217 31.3255L77.6234 31.324L76.9403 30.5936ZM79.3055 30.1419L78.9949 31.0925L79.0012 31.0945L79.3055 30.1419ZM80.2148 30.808L79.4135 31.4063L79.4191 31.4137L80.2148 30.808ZM81.4553 36.2232L81.6289 37.208L82.6137 37.0344L82.4401 36.0496L81.4553 36.2232ZM80.4649 36.3978L79.48 36.5715L79.6537 37.5563L80.6385 37.3827L80.4649 36.3978ZM79.1464 31.2517L78.5438 32.0498L78.552 32.0559L79.1464 31.2517ZM77.1397 31.3806L76.5235 30.593L76.5199 30.5958L77.1397 31.3806ZM76.6412 32.0872L75.698 31.7548L75.6954 31.7625L76.6412 32.0872ZM75.6069 33.2562L76.2906 37.1339L78.2602 36.7866L77.5765 32.9089L75.6069 33.2562ZM77.1018 35.9754L76.1114 36.1501L76.4587 38.1197L77.4491 37.945L77.1018 35.9754ZM77.2698 36.9612L75.7544 28.3665L73.7847 28.7138L75.3002 37.3085L77.2698 36.9612ZM74.9432 29.525L75.9336 29.3503L75.5863 27.3807L74.5959 27.5554L74.9432 29.525ZM74.7751 28.5392L75.3316 31.695L77.3012 31.3478L76.7448 28.1919L74.7751 28.5392ZM76.4901 32.5062L76.574 32.4914L76.2267 30.5218L76.1428 30.5366L76.4901 32.5062ZM77.3689 31.7554C77.4145 31.578 77.4963 31.4423 77.6217 31.3255L76.259 29.8616C75.8492 30.2431 75.571 30.716 75.4318 31.2578L77.3689 31.7554ZM77.6234 31.324C77.7064 31.2463 77.891 31.1341 78.2785 31.0658L77.9312 29.0962C77.3059 29.2065 76.7141 29.436 76.2573 29.8632L77.6234 31.324ZM78.2785 31.0658C78.5841 31.0119 78.8149 31.0336 78.9949 31.0924L79.6162 29.1914C79.0737 29.0141 78.5041 28.9952 77.9312 29.0962L78.2785 31.0658ZM79.0012 31.0945C79.1465 31.1409 79.2817 31.2297 79.4135 31.4063L81.0162 30.2098C80.657 29.7287 80.1859 29.3734 79.6099 29.1893L79.0012 31.0945ZM79.4191 31.4137C79.541 31.5739 79.6684 31.8482 79.7482 32.301L81.7178 31.9537C81.6023 31.2985 81.3842 30.6933 81.0106 30.2024L79.4191 31.4137ZM79.7482 32.301L80.4705 36.3969L82.4401 36.0496L81.7178 31.9537L79.7482 32.301ZM81.2816 35.2384L80.2912 35.413L80.6385 37.3827L81.6289 37.208L81.2816 35.2384ZM81.4497 36.2242L80.7393 32.1954L78.7697 32.5427L79.48 36.5715L81.4497 36.2242ZM80.7393 32.1954C80.6194 31.5157 80.3221 30.8773 79.7408 30.4476L78.552 32.0559C78.6009 32.092 78.709 32.1985 78.7697 32.5427L80.7393 32.1954ZM79.749 30.4537C79.1688 30.0156 78.4812 29.9166 77.8027 30.0362L78.15 32.0058C78.4059 31.9607 78.4983 32.0155 78.5438 32.0498L79.749 30.4537ZM77.8027 30.0362C77.3352 30.1186 76.8999 30.2985 76.5235 30.593L77.7559 32.1681C77.8459 32.0977 77.9684 32.0378 78.15 32.0058L77.8027 30.0362ZM76.5199 30.5958C76.1344 30.9003 75.8599 31.2956 75.6981 31.7548L77.5843 32.4197C77.6263 32.3006 77.6842 32.2248 77.7595 32.1653L76.5199 30.5958ZM75.6954 31.7625C75.5293 32.2462 75.5185 32.7552 75.6069 33.2562L77.5765 32.9089C77.5326 32.6601 77.5549 32.5055 77.587 32.412L75.6954 31.7625Z" fill="black"/>
<path d="M42.732 43.0512L41.7472 43.2248L41.9208 44.2096L42.9056 44.036L42.732 43.0512ZM41.2165 34.4565L41.0428 33.4717L40.058 33.6453L40.2317 34.6301L41.2165 34.4565ZM46.3699 33.5478L47.3547 33.3741L47.1811 32.3893L46.1963 32.563L46.3699 33.5478ZM46.5327 34.471L46.7064 35.4559L47.6912 35.2822L47.5175 34.2974L46.5327 34.471ZM42.42 35.1962L42.2464 34.2114L41.2616 34.3851L41.4352 35.3699L42.42 35.1962ZM42.9321 38.1003L41.9473 38.2739L42.121 39.2587L43.1058 39.0851L42.9321 38.1003ZM46.6587 37.4432L47.6435 37.2695L47.4699 36.2847L46.4851 36.4584L46.6587 37.4432ZM46.8215 38.3664L46.9952 39.3513L47.98 39.1776L47.8063 38.1928L46.8215 38.3664ZM43.0949 39.0235L42.9213 38.0387L41.9364 38.2124L42.1101 39.1972L43.0949 39.0235ZM43.7727 42.8677L43.9464 43.8525L44.9312 43.6788L44.7575 42.694L43.7727 42.8677ZM43.7168 42.8775L42.2013 34.2828L40.2317 34.6301L41.7472 43.2248L43.7168 42.8775ZM41.3901 35.4413L46.5436 34.5326L46.1963 32.563L41.0428 33.4717L41.3901 35.4413ZM45.3851 33.7214L45.5479 34.6447L47.5175 34.2974L47.3547 33.3741L45.3851 33.7214ZM46.3591 33.4862L42.2464 34.2114L42.5937 36.181L46.7064 35.4559L46.3591 33.4862ZM41.4352 35.3699L41.9473 38.2739L43.9169 37.9266L43.4049 35.0226L41.4352 35.3699ZM43.1058 39.0851L46.8324 38.428L46.4851 36.4584L42.7585 37.1155L43.1058 39.0851ZM45.6739 37.6168L45.8367 38.5401L47.8063 38.1928L47.6435 37.2695L45.6739 37.6168ZM46.6479 37.3816L42.9213 38.0387L43.2686 40.0084L46.9952 39.3513L46.6479 37.3816ZM42.1101 39.1972L42.7879 43.0413L44.7575 42.694L44.0797 38.8499L42.1101 39.1972ZM43.5991 41.8828L42.5583 42.0664L42.9056 44.036L43.9464 43.8525L43.5991 41.8828ZM52.0554 34.7608L51.8818 33.776L50.897 33.9496L51.0706 34.9344L52.0554 34.7608ZM53.0458 34.5861L54.0307 34.4125L53.857 33.4277L52.8722 33.6013L53.0458 34.5861ZM54.1825 41.0321L54.3561 42.0169L55.3409 41.8433L55.1673 40.8585L54.1825 41.0321ZM53.192 41.2068L52.2072 41.3804L52.3809 42.3652L53.3657 42.1916L53.192 41.2068ZM52.9997 40.1157L53.9845 39.942L53.8108 38.9572L52.826 39.1308L52.9997 40.1157ZM52.9325 40.1275L52.7589 39.1427L52.1287 39.2538L51.9656 39.8725L52.9325 40.1275ZM52.3747 41.0869L53.0867 41.7892L53.0908 41.785L52.3747 41.0869ZM50.1051 41.565L49.7672 42.5063L49.7736 42.5085L50.1051 41.565ZM49.2244 40.8895L48.4194 41.4827L48.4212 41.4852L49.2244 40.8895ZM47.9931 35.4771L47.8195 34.4923L46.8347 34.6659L47.0083 35.6507L47.9931 35.4771ZM48.9835 35.3024L49.9683 35.1288L49.7947 34.144L48.8099 34.3176L48.9835 35.3024ZM50.2867 40.3863L49.6881 41.1874L49.6923 41.1905L50.2867 40.3863ZM52.0942 40.3056L51.5055 39.4972L51.502 39.4998L52.0942 40.3056ZM52.6383 39.6125L51.7256 39.2039L51.7226 39.2107L52.6383 39.6125ZM53.7121 38.3976L53.0402 34.5871L51.0706 34.9344L51.7425 38.7449L53.7121 38.3976ZM52.2291 35.7456L53.2195 35.5709L52.8722 33.6013L51.8818 33.776L52.2291 35.7456ZM52.061 34.7598L53.1976 41.2058L55.1673 40.8585L54.0307 34.4125L52.061 34.7598ZM54.0088 40.0473L53.0184 40.222L53.3657 42.1916L54.3561 42.0169L54.0088 40.0473ZM54.1769 41.0331L53.9845 39.942L52.0148 40.2893L52.2072 41.3804L54.1769 41.0331ZM52.826 39.1308L52.7589 39.1427L53.1062 41.1123L53.1733 41.1005L52.826 39.1308ZM51.9656 39.8725C51.9201 40.0448 51.8279 40.2154 51.6587 40.3889L53.0908 41.785C53.4786 41.3872 53.7582 40.9181 53.8994 40.3825L51.9656 39.8725ZM51.6628 40.3847C51.5618 40.4871 51.3852 40.5965 51.0524 40.6552L51.3997 42.6248C52.0405 42.5118 52.6297 42.2525 53.0867 41.7892L51.6628 40.3847ZM51.0524 40.6552C50.7979 40.7001 50.6001 40.679 50.4366 40.6216L49.7736 42.5085C50.2989 42.693 50.8485 42.722 51.3997 42.6248L51.0524 40.6552ZM50.4429 40.6238C50.3039 40.5739 50.1655 40.4798 50.0276 40.2938L48.4212 41.4852C48.7677 41.9523 49.2165 42.3085 49.7673 42.5062L50.4429 40.6238ZM50.0294 40.2963C49.9051 40.1275 49.7792 39.8478 49.7001 39.3993L47.7305 39.7466C47.8448 40.3948 48.0583 40.9928 48.4194 41.4827L50.0294 40.2963ZM49.7001 39.3993L48.9779 35.3034L47.0083 35.6507L47.7305 39.7466L49.7001 39.3993ZM48.1668 36.4619L49.1572 36.2872L48.8099 34.3176L47.8195 34.4923L48.1668 36.4619ZM47.9987 35.4761L48.7091 39.5048L50.6787 39.1575L49.9683 35.1288L47.9987 35.4761ZM48.7091 39.5048C48.8257 40.1663 49.1283 40.7691 49.6881 41.1874L50.8853 39.5853C50.8204 39.5368 50.7278 39.4361 50.6787 39.1575L48.7091 39.5048ZM49.6923 41.1905C50.2435 41.5979 50.8885 41.7283 51.5499 41.6117L51.2026 39.6421C51.0415 39.6705 50.9601 39.6405 50.8811 39.5821L49.6923 41.1905ZM51.5499 41.6117C51.9692 41.5378 52.3491 41.3592 52.6864 41.1114L51.502 39.4998C51.3744 39.5935 51.2757 39.6292 51.2026 39.6421L51.5499 41.6117ZM52.6829 41.114C53.074 40.8291 53.3621 40.4519 53.5541 40.0143L51.7226 39.2107C51.6594 39.3547 51.5847 39.4395 51.5055 39.4973L52.6829 41.114ZM53.5511 40.0211C53.7834 39.5021 53.8082 38.9422 53.7121 38.3976L51.7425 38.7449C51.7886 39.0062 51.754 39.1404 51.7256 39.204L53.5511 40.0211ZM55.9964 40.7123L55.0116 40.8859L55.1853 41.8707L56.1701 41.6971L55.9964 40.7123ZM54.8598 34.2663L54.6862 33.2815L53.7014 33.4551L53.875 34.4399L54.8598 34.2663ZM55.8167 34.0976L56.8015 33.9239L56.6278 32.9391L55.643 33.1127L55.8167 34.0976ZM55.9883 35.0712L55.0035 35.2448L55.1772 36.2296L56.162 36.056L55.9883 35.0712ZM56.0555 35.0593L56.2291 36.0441L56.9158 35.9231L57.0396 35.2368L56.0555 35.0593ZM56.5565 34.1705L55.8765 33.4372L55.8765 33.4372L56.5565 34.1705ZM58.068 33.614L59.0529 33.4404L58.8957 32.5492L57.9933 32.6168L58.068 33.614ZM58.2456 34.6212L58.1753 35.6187L59.4529 35.7089L59.2304 34.4476L58.2456 34.6212ZM58.0082 34.6242L58.0175 35.6241L58.0308 35.624L58.044 35.6235L58.0082 34.6242ZM56.8249 35.0059L57.4388 35.7953L57.4421 35.7927L56.8249 35.0059ZM56.3405 35.6452L55.4125 35.2725L55.4113 35.2756L56.3405 35.6452ZM56.9868 40.5376L57.1605 41.5225L58.1453 41.3488L57.9717 40.364L56.9868 40.5376ZM56.9812 40.5386L55.8446 34.0926L53.875 34.4399L55.0116 40.8859L56.9812 40.5386ZM55.0335 35.2511L55.9903 35.0824L55.643 33.1127L54.6862 33.2815L55.0335 35.2511ZM54.8319 34.2712L55.0035 35.2448L56.9731 34.8975L56.8015 33.9239L54.8319 34.2712ZM56.162 36.056L56.2291 36.0441L55.8818 34.0745L55.8147 34.0864L56.162 36.056ZM57.0396 35.2368C57.0593 35.1274 57.1095 35.0214 57.2364 34.9037L55.8765 33.4372C55.458 33.8254 55.1742 34.3119 55.0714 34.8818L57.0396 35.2368ZM57.2364 34.9037C57.3603 34.7889 57.511 34.7104 57.7183 34.6738L57.3711 32.7042C56.8063 32.8038 56.2981 33.0463 55.8765 33.4372L57.2364 34.9037ZM57.7183 34.6738C57.7796 34.663 57.8617 34.6498 57.9666 34.634L57.6699 32.6562C57.5555 32.6733 57.4552 32.6894 57.3711 32.7042L57.7183 34.6738ZM57.9666 34.634C58.0699 34.6185 58.1237 34.6127 58.1428 34.6112L57.9933 32.6168C57.8985 32.6239 57.7858 32.6388 57.6699 32.6562L57.9666 34.634ZM57.0832 33.7877L57.2608 34.7949L59.2304 34.4476L59.0529 33.4404L57.0832 33.7877ZM58.316 33.6237C58.2171 33.6167 58.0805 33.6209 57.9723 33.6248L58.044 35.6235C58.1016 35.6214 58.1436 35.6204 58.1723 35.62C58.1866 35.6198 58.1947 35.6199 58.198 35.6199C58.2033 35.62 58.1936 35.62 58.1753 35.6187L58.316 33.6237ZM57.9988 33.6242C57.8174 33.6259 57.6361 33.644 57.4558 33.6758L57.8031 35.6454C57.8859 35.6308 57.957 35.6247 58.0175 35.6241L57.9988 33.6242ZM57.4558 33.6758C57.0008 33.7561 56.5753 33.9308 56.2078 34.219L57.4421 35.7927C57.5206 35.7312 57.6315 35.6757 57.8031 35.6454L57.4558 33.6758ZM56.2111 34.2164C55.8534 34.4945 55.5821 34.8504 55.4126 35.2725L57.2685 36.0178C57.3034 35.9308 57.355 35.8604 57.4388 35.7953L56.2111 34.2164ZM55.4113 35.2756C55.2365 35.7151 55.2023 36.176 55.2828 36.6322L57.2524 36.2849C57.2302 36.1591 57.2447 36.0778 57.2697 36.0147L55.4113 35.2756ZM55.2828 36.6322L56.002 40.7113L57.9717 40.364L57.2524 36.2849L55.2828 36.6322ZM56.8132 39.5528L55.8228 39.7275L56.1701 41.6971L57.1605 41.5225L56.8132 39.5528ZM61.3839 39.7623L61.5575 40.7471L62.5423 40.5735L62.3687 39.5887L61.3839 39.7623ZM60.3935 39.937L59.4086 40.1106L59.5823 41.0954L60.5671 40.9218L60.3935 39.937ZM59.2568 33.491L59.0832 32.5062L58.0984 32.6798L58.272 33.6646L59.2568 33.491ZM60.2137 33.3222L61.1985 33.1486L61.0248 32.1638L60.04 32.3374L60.2137 33.3222ZM60.3913 34.3294L59.4065 34.5031L59.5801 35.4879L60.5649 35.3142L60.3913 34.3294ZM60.4752 34.3146L60.6489 35.2994L61.279 35.1883L61.4421 34.5697L60.4752 34.3146ZM61.0243 33.4043L61.7043 34.1376L61.709 34.1332L61.0243 33.4043ZM63.3559 32.9586L63.0357 33.9059L63.0419 33.908L63.3559 32.9586ZM64.2618 33.6296L63.4605 34.2279L63.4623 34.2304L64.2618 33.6296ZM65.4965 39.0372L65.6702 40.022L66.655 39.8483L66.4814 38.8635L65.4965 39.0372ZM64.5061 39.2118L63.5213 39.3854L63.695 40.3703L64.6798 40.1966L64.5061 39.2118ZM63.1926 34.0691L62.5861 34.8642L62.59 34.8672L63.1926 34.0691ZM61.2229 34.1871L60.5959 33.4082L60.5921 33.4112L61.2229 34.1871ZM60.7454 34.8901L59.797 34.5731L59.797 34.5731L60.7454 34.8901ZM59.7153 36.0583L60.399 39.936L62.3687 39.5887L61.6849 35.711L59.7153 36.0583ZM61.2102 38.7775L60.2198 38.9522L60.5671 40.9218L61.5575 40.7471L61.2102 38.7775ZM61.3783 39.7633L60.2417 33.3173L58.272 33.6646L59.4086 40.1106L61.3783 39.7633ZM59.4305 34.4758L60.3873 34.3071L60.04 32.3374L59.0832 32.5062L59.4305 34.4758ZM59.2289 33.4959L59.4065 34.5031L61.3761 34.1558L61.1985 33.1486L59.2289 33.4959ZM60.5649 35.3142L60.6489 35.2994L60.3016 33.3298L60.2176 33.3446L60.5649 35.3142ZM61.4421 34.5697C61.4863 34.4022 61.5683 34.2637 61.7043 34.1376L60.3444 32.6711C59.9349 33.0507 59.6508 33.5192 59.5083 34.0596L61.4421 34.5697ZM61.709 34.1332C61.8003 34.0475 61.9805 33.9396 62.3365 33.8768L61.9893 31.9072C61.3716 32.0161 60.7929 32.2498 60.3397 32.6754L61.709 34.1332ZM62.3365 33.8768C62.636 33.824 62.8607 33.8467 63.0357 33.9059L63.6762 32.0112C63.1334 31.8277 62.5627 31.8061 61.9893 31.9072L62.3365 33.8768ZM63.0419 33.908C63.1887 33.9565 63.3264 34.0482 63.4605 34.2279L65.0631 33.0314C64.7062 32.5534 64.24 32.1977 63.6699 32.0091L63.0419 33.908ZM63.4623 34.2304C63.5847 34.3933 63.7107 34.6678 63.7895 35.1149L65.7591 34.7676C65.6446 34.118 65.4289 33.5181 65.0613 33.0289L63.4623 34.2304ZM63.7895 35.1149L64.5117 39.2108L66.4814 38.8635L65.7591 34.7676L63.7895 35.1149ZM65.3229 38.0524L64.3325 38.227L64.6798 40.1966L65.6702 40.022L65.3229 38.0524ZM65.491 39.0381L64.7806 35.0094L62.811 35.3567L63.5213 39.3854L65.491 39.0381ZM64.7806 35.0094C64.6615 34.3338 64.3663 33.7023 63.7952 33.2711L62.59 34.8672C62.6446 34.9084 62.7515 35.0195 62.811 35.3567L64.7806 35.0094ZM63.7991 33.2741C63.2231 32.8347 62.5401 32.7274 61.8608 32.8472L62.2081 34.8168C62.4464 34.7748 62.5355 34.8256 62.5861 34.8642L63.7991 33.2741ZM61.8608 32.8472C61.3975 32.9289 60.9663 33.1099 60.5959 33.4082L61.85 34.9661C61.9292 34.9023 62.039 34.8466 62.2081 34.8168L61.8608 32.8472ZM60.5921 33.4112C60.2136 33.7189 59.9496 34.1165 59.797 34.5731L61.6939 35.2071C61.7339 35.0873 61.7882 35.0163 61.8538 34.9631L60.5921 33.4112ZM59.797 34.5731C59.6362 35.0543 59.6275 35.5601 59.7153 36.0583L61.6849 35.711C61.6406 35.4594 61.6621 35.3022 61.6939 35.2071L59.797 34.5731ZM67.3063 38.718L66.3215 38.8917L66.4952 39.8765L67.48 39.7029L67.3063 38.718ZM66.1697 32.272L65.9961 31.2872L65.0113 31.4609L65.1849 32.4457L66.1697 32.272ZM67.1601 32.0974L68.1449 31.9237L67.9713 30.9389L66.9865 31.1126L67.1601 32.0974ZM68.2967 38.5434L68.4704 39.5282L69.4552 39.3546L69.2816 38.3698L68.2967 38.5434ZM65.9497 30.9997L65.3933 31.8307L65.4017 31.8362L65.9497 30.9997ZM65.7825 30.0513L64.9814 29.4526L64.9755 29.4608L65.7825 30.0513ZM66.7771 29.8759L66.2207 30.7069L66.2291 30.7124L66.7771 29.8759ZM66.9443 30.8243L66.1432 30.2257L66.1373 30.2338L66.9443 30.8243ZM68.2912 38.5444L67.1545 32.0984L65.1849 32.4457L66.3215 38.8917L68.2912 38.5444ZM66.3434 33.2568L67.3338 33.0822L66.9865 31.1126L65.9961 31.2872L66.3434 33.2568ZM66.1753 32.271L67.3119 38.7171L69.2816 38.3698L68.1449 31.9237L66.1753 32.271ZM68.1231 37.5586L67.1327 37.7332L67.48 39.7029L68.4704 39.5282L68.1231 37.5586ZM66.3102 30.1241C66.3278 30.121 66.3623 30.1185 66.4058 30.1274C66.4495 30.1363 66.4812 30.1524 66.4977 30.1632L65.4017 31.8362C65.779 32.0834 66.2154 32.1717 66.6575 32.0937L66.3102 30.1241ZM66.5061 30.1688C66.525 30.1814 66.5595 30.2099 66.5916 30.2586C66.6241 30.3079 66.6395 30.3554 66.6453 30.3881L64.6757 30.7354C64.757 31.1969 65.014 31.5766 65.3933 31.8306L66.5061 30.1688ZM66.6453 30.3881C66.651 30.4208 66.6529 30.4707 66.6392 30.5281C66.6256 30.5849 66.6029 30.6235 66.5895 30.6418L64.9755 29.4608C64.7059 29.8292 64.5943 30.2739 64.6757 30.7354L66.6453 30.3881ZM66.5835 30.6499C66.5717 30.6657 66.5474 30.6917 66.5094 30.715C66.4715 30.7383 66.4383 30.7477 66.4208 30.7508L66.0735 28.7812C65.6313 28.8591 65.2515 29.0914 64.9815 29.4527L66.5835 30.6499ZM66.4208 30.7508C66.4033 30.7539 66.3674 30.7567 66.3213 30.7471C66.2749 30.7375 66.2402 30.7199 66.2207 30.7068L67.3335 29.045C66.955 28.7915 66.516 28.7031 66.0735 28.7812L66.4208 30.7508ZM66.2291 30.7124C66.2112 30.7007 66.1759 30.6724 66.1424 30.6226C66.1085 30.572 66.092 30.5222 66.0857 30.4868L68.0553 30.1395C67.9728 29.6711 67.7086 29.2907 67.3251 29.0394L66.2291 30.7124ZM66.0857 30.4868C66.0795 30.4514 66.0779 30.3989 66.0926 30.3397C66.1069 30.2815 66.1305 30.2428 66.1433 30.2257L67.7453 31.423C68.0198 31.0557 68.1379 30.6078 68.0553 30.1395L66.0857 30.4868ZM66.1373 30.2338C66.1511 30.2149 66.1777 30.1865 66.2181 30.1616C66.2581 30.1368 66.2928 30.1272 66.3102 30.1241L66.6575 32.0937C67.1001 32.0157 67.4824 31.7825 67.7513 31.4149L66.1373 30.2338ZM73.7946 32.4161L74.2299 33.3164L75.1743 32.8598L74.6731 31.9383L73.7946 32.4161ZM72.9493 32.8248L72.0892 33.3349L72.5578 34.1248L73.3846 33.7251L72.9493 32.8248ZM72.6255 32.4362L71.9396 33.1638L71.9476 33.1714L71.9558 33.1788L72.6255 32.4362ZM72.1269 32.1606L72.412 31.2021L72.412 31.2021L72.1269 32.1606ZM70.4551 32.5938L71.1565 33.3067L71.1581 33.3051L70.4551 32.5938ZM70.5569 33.8827L70.079 34.7611L70.079 34.7611L70.5569 33.8827ZM71.4591 34.0914L71.3887 35.0889L71.3929 35.0892L71.4591 34.0914ZM72.4574 34.1577L72.3911 35.1555L72.3939 35.1557L72.4574 34.1577ZM73.859 34.5726L73.2774 35.3861L73.2814 35.3889L73.859 34.5726ZM74.3331 36.6482L73.4356 36.2074L73.4328 36.213L74.3331 36.6482ZM70.5919 37.8358L70.9909 36.9189L70.9909 36.9189L70.5919 37.8358ZM69.5531 36.7295L69.1457 35.8162L68.2672 36.208L68.6247 37.1011L69.5531 36.7295ZM70.4517 36.3287L71.3618 35.9145L70.9507 35.0112L70.0443 35.4155L70.4517 36.3287ZM71.0971 37.0198L70.6766 37.9271L70.6814 37.9293L71.0971 37.0198ZM73.1769 36.6184L73.894 37.3154L73.8953 37.3141L73.1769 36.6184ZM73.1282 35.3116L72.562 36.1359L72.5696 36.141L73.1282 35.3116ZM72.3457 35.0947L72.29 36.0932L72.2916 36.0933L72.3457 35.0947ZM71.227 35.0324L71.1689 36.0307L71.1713 36.0308L71.227 35.0324ZM69.8113 34.6113L69.206 35.4074L69.2139 35.4132L69.8113 34.6113ZM69.3401 32.5525L68.4452 32.1062L68.4423 32.1121L69.3401 32.5525ZM70.0675 31.7449L69.5082 30.9159L69.5058 30.9175L70.0675 31.7449ZM72.8187 31.4458L72.3559 32.3323L72.3592 32.334L72.8187 31.4458ZM73.3593 31.5158L72.5141 31.9245L73.3846 33.7251L74.2299 33.3164L73.3593 31.5158ZM73.8094 32.3146C73.6702 32.0799 73.495 31.8737 73.2952 31.6936L71.9558 33.1788C72.0236 33.2399 72.0642 33.2928 72.0892 33.3349L73.8094 32.3146ZM73.3115 31.7085C73.0493 31.4614 72.7387 31.2993 72.412 31.2021L71.8418 33.1191C71.9169 33.1414 71.9387 33.163 71.9396 33.1638L73.3115 31.7085ZM72.412 31.2021C72.0153 31.0841 71.6037 31.0946 71.2196 31.1624L71.5669 33.132C71.7591 33.0981 71.8366 33.1176 71.8418 33.1191L72.412 31.2021ZM71.2196 31.1624C70.6722 31.2589 70.1584 31.4812 69.7522 31.8826L71.1581 33.3051C71.2137 33.2501 71.3253 33.1746 71.5669 33.132L71.2196 31.1624ZM69.7538 31.881C69.3288 32.2992 69.086 32.8698 69.2007 33.5204L71.1703 33.1731C71.1718 33.1816 71.1736 33.1984 71.1718 33.2214C71.17 33.2446 71.165 33.2676 71.1577 33.288C71.1426 33.3301 71.1279 33.3347 71.1565 33.3067L69.7538 31.881ZM69.2007 33.5204C69.2924 34.0404 69.585 34.4923 70.079 34.7611L71.0348 33.0043C71.0602 33.0181 71.0996 33.0479 71.1328 33.0958C71.1646 33.1417 71.1707 33.1753 71.1703 33.1731L69.2007 33.5204ZM70.079 34.7611C70.4683 34.9729 70.9364 35.057 71.3887 35.0889L71.5295 33.0939C71.369 33.0826 71.2483 33.0641 71.161 33.0439C71.1181 33.034 71.0867 33.0244 71.0651 33.0167C71.0433 33.0089 71.0343 33.004 71.0348 33.0043L70.079 34.7611ZM71.3929 35.0892L72.3911 35.1555L72.5237 33.1599L71.5254 33.0936L71.3929 35.0892ZM72.3939 35.1557C72.8906 35.1873 73.1515 35.2961 73.2774 35.3861L74.4406 33.7591C73.8997 33.3725 73.2262 33.2046 72.5209 33.1597L72.3939 35.1557ZM73.2814 35.3889C73.3722 35.4532 73.4529 35.5499 73.4927 35.7752L75.4623 35.4279C75.3432 34.7524 75.0115 34.1631 74.4366 33.7563L73.2814 35.3889ZM73.4927 35.7752C73.5219 35.9412 73.5009 36.0743 73.4356 36.2074L75.2307 37.0891C75.488 36.5652 75.5632 36.0006 75.4623 35.4279L73.4927 35.7752ZM73.4328 36.213C73.3624 36.3588 73.2385 36.5116 73.0146 36.6625L74.1319 38.3213C74.6041 38.0032 74.9869 37.5936 75.2335 37.0834L73.4328 36.213ZM73.0146 36.6625C72.8044 36.804 72.5178 36.9222 72.1262 36.9912L72.4735 38.9608C73.0836 38.8533 73.6459 38.6486 74.1319 38.3213L73.0146 36.6625ZM72.1262 36.9912C71.6098 37.0823 71.2488 37.0311 70.9909 36.9189L70.1929 38.7527C70.8974 39.0594 71.675 39.1016 72.4735 38.9608L72.1262 36.9912ZM70.9909 36.9189C70.7726 36.8238 70.6041 36.6643 70.4814 36.3579L68.6247 37.1011C68.9248 37.851 69.4489 38.429 70.1929 38.7527L70.9909 36.9189ZM69.9604 37.6428L70.859 37.242L70.0443 35.4155L69.1457 35.8162L69.9604 37.6428ZM69.5415 36.743C69.7724 37.2504 70.1422 37.6794 70.6766 37.9271L71.5175 36.1125C71.4928 36.101 71.4323 36.0694 71.3618 35.9145L69.5415 36.743ZM70.6814 37.9293C71.1996 38.1661 71.7618 38.1863 72.3028 38.0909L71.9555 36.1213C71.6851 36.1689 71.5593 36.1316 71.5128 36.1103L70.6814 37.9293ZM72.3028 38.0909C72.8947 37.9865 73.4645 37.7573 73.894 37.3154L72.4598 35.9215C72.4156 35.9669 72.2869 36.0628 71.9555 36.1213L72.3028 38.0909ZM73.8953 37.3141C74.3017 36.8944 74.5643 36.323 74.4472 35.6588L72.4776 36.0061C72.4753 35.9933 72.4737 35.9744 72.4757 35.9518C72.4776 35.9292 72.4825 35.9097 72.4877 35.8953C72.498 35.8668 72.5024 35.8775 72.4585 35.9228L73.8953 37.3141ZM74.4472 35.6588C74.3621 35.1762 74.1024 34.762 73.6868 34.4821L72.5696 36.141C72.5563 36.1321 72.5306 36.1104 72.5075 36.0744C72.4848 36.0389 72.4785 36.0113 72.4776 36.0061L74.4472 35.6588ZM73.6944 34.4873C73.3001 34.2165 72.8332 34.1197 72.3998 34.0962L72.2916 36.0933C72.4055 36.0995 72.4815 36.1136 72.5277 36.1264C72.5734 36.139 72.5785 36.1472 72.562 36.1359L73.6944 34.4873ZM72.4014 34.0963L71.2826 34.0339L71.1713 36.0308L72.29 36.0932L72.4014 34.0963ZM71.2851 34.0341C70.7734 34.0043 70.5205 33.8926 70.4087 33.8094L69.2139 35.4132C69.7597 35.8198 70.4506 35.9889 71.1689 36.0307L71.2851 34.0341ZM70.4165 33.8152C70.3114 33.7353 70.2283 33.6223 70.1888 33.3981L68.2191 33.7454C68.3365 34.4108 68.6583 34.9908 69.2061 35.4073L70.4165 33.8152ZM70.1888 33.3981C70.1595 33.232 70.1812 33.1085 70.2379 32.9929L68.4423 32.1121C68.1892 32.628 68.1202 33.184 68.2191 33.7454L70.1888 33.3981ZM70.235 32.9987C70.3074 32.8535 70.4266 32.7097 70.6291 32.5722L69.5058 30.9175C69.0539 31.2243 68.6882 31.6188 68.4452 32.1062L70.235 32.9987ZM70.6267 32.5739C70.8237 32.4409 71.0793 32.3352 71.4159 32.2759L71.0686 30.3063C70.4988 30.4067 69.9712 30.6035 69.5082 30.9159L70.6267 32.5739ZM71.4159 32.2759C71.9198 32.187 72.2019 32.2519 72.3559 32.3323L73.2815 30.5594C72.6094 30.2085 71.8406 30.1701 71.0686 30.3063L71.4159 32.2759ZM72.3592 32.334C72.5884 32.4526 72.7718 32.6285 72.9161 32.8938L74.6731 31.9383C74.3478 31.3402 73.8807 30.8693 73.2782 30.5576L72.3592 32.334ZM77.2754 36.9602L77.4491 37.945L78.4339 37.7714L78.2602 36.7866L77.2754 36.9602ZM76.285 37.1349L75.3002 37.3085L75.4739 38.2933L76.4587 38.1197L76.285 37.1349ZM74.7695 28.5402L74.5959 27.5554L73.6111 27.729L73.7847 28.7138L74.7695 28.5402ZM75.7599 28.3655L76.7448 28.1919L76.5711 27.2071L75.5863 27.3807L75.7599 28.3655ZM76.3164 31.5214L75.3316 31.695L75.5053 32.6799L76.4901 32.5062L76.3164 31.5214ZM76.4003 31.5066L76.574 32.4914L77.2086 32.3795L77.3689 31.7554L76.4003 31.5066ZM76.9403 30.5936L77.6217 31.3255L77.6234 31.324L76.9403 30.5936ZM79.3055 30.1419L78.9949 31.0925L79.0012 31.0945L79.3055 30.1419ZM80.2148 30.808L79.4135 31.4063L79.4191 31.4137L80.2148 30.808ZM81.4553 36.2232L81.6289 37.208L82.6137 37.0344L82.4401 36.0496L81.4553 36.2232ZM80.4649 36.3978L79.48 36.5715L79.6537 37.5563L80.6385 37.3827L80.4649 36.3978ZM79.1464 31.2517L78.5438 32.0498L78.552 32.0559L79.1464 31.2517ZM77.1397 31.3806L76.5235 30.593L76.5199 30.5958L77.1397 31.3806ZM76.6412 32.0872L75.698 31.7548L75.6954 31.7625L76.6412 32.0872ZM75.6069 33.2562L76.2906 37.1339L78.2602 36.7866L77.5765 32.9089L75.6069 33.2562ZM77.1018 35.9754L76.1114 36.1501L76.4587 38.1197L77.4491 37.945L77.1018 35.9754ZM77.2698 36.9612L75.7544 28.3665L73.7847 28.7138L75.3002 37.3085L77.2698 36.9612ZM74.9432 29.525L75.9336 29.3503L75.5863 27.3807L74.5959 27.5554L74.9432 29.525ZM74.7751 28.5392L75.3316 31.695L77.3012 31.3478L76.7448 28.1919L74.7751 28.5392ZM76.4901 32.5062L76.574 32.4914L76.2267 30.5218L76.1428 30.5366L76.4901 32.5062ZM77.3689 31.7554C77.4145 31.578 77.4963 31.4423 77.6217 31.3255L76.259 29.8616C75.8492 30.2431 75.571 30.716 75.4318 31.2578L77.3689 31.7554ZM77.6234 31.324C77.7064 31.2463 77.891 31.1341 78.2785 31.0658L77.9312 29.0962C77.3059 29.2065 76.7141 29.436 76.2573 29.8632L77.6234 31.324ZM78.2785 31.0658C78.5841 31.0119 78.8149 31.0336 78.9949 31.0924L79.6162 29.1914C79.0737 29.0141 78.5041 28.9952 77.9312 29.0962L78.2785 31.0658ZM79.0012 31.0945C79.1465 31.1409 79.2817 31.2297 79.4135 31.4063L81.0162 30.2098C80.657 29.7287 80.1859 29.3734 79.6099 29.1893L79.0012 31.0945ZM79.4191 31.4137C79.541 31.5739 79.6684 31.8482 79.7482 32.301L81.7178 31.9537C81.6023 31.2985 81.3842 30.6933 81.0106 30.2024L79.4191 31.4137ZM79.7482 32.301L80.4705 36.3969L82.4401 36.0496L81.7178 31.9537L79.7482 32.301ZM81.2816 35.2384L80.2912 35.413L80.6385 37.3827L81.6289 37.208L81.2816 35.2384ZM81.4497 36.2242L80.7393 32.1954L78.7697 32.5427L79.48 36.5715L81.4497 36.2242ZM80.7393 32.1954C80.6194 31.5157 80.3221 30.8773 79.7408 30.4476L78.552 32.0559C78.6009 32.092 78.709 32.1985 78.7697 32.5427L80.7393 32.1954ZM79.749 30.4537C79.1688 30.0156 78.4812 29.9166 77.8027 30.0362L78.15 32.0058C78.4059 31.9607 78.4983 32.0155 78.5438 32.0498L79.749 30.4537ZM77.8027 30.0362C77.3352 30.1186 76.8999 30.2985 76.5235 30.593L77.7559 32.1681C77.8459 32.0977 77.9684 32.0378 78.15 32.0058L77.8027 30.0362ZM76.5199 30.5958C76.1344 30.9003 75.8599 31.2956 75.6981 31.7548L77.5843 32.4197C77.6263 32.3006 77.6842 32.2248 77.7595 32.1653L76.5199 30.5958ZM75.6954 31.7625C75.5293 32.2462 75.5185 32.7552 75.6069 33.2562L77.5765 32.9089C77.5326 32.6601 77.5549 32.5055 77.587 32.412L75.6954 31.7625Z" fill="black" fill-opacity="0.2"/>
<path d="M42.732 43.0512L41.7472 43.2248L41.9208 44.2096L42.9056 44.036L42.732 43.0512ZM41.2165 34.4565L41.0428 33.4717L40.058 33.6453L40.2317 34.6301L41.2165 34.4565ZM46.3699 33.5478L47.3547 33.3741L47.1811 32.3893L46.1963 32.563L46.3699 33.5478ZM46.5327 34.471L46.7064 35.4559L47.6912 35.2822L47.5175 34.2974L46.5327 34.471ZM42.42 35.1962L42.2464 34.2114L41.2616 34.3851L41.4352 35.3699L42.42 35.1962ZM42.9321 38.1003L41.9473 38.2739L42.121 39.2587L43.1058 39.0851L42.9321 38.1003ZM46.6587 37.4432L47.6435 37.2695L47.4699 36.2847L46.4851 36.4584L46.6587 37.4432ZM46.8215 38.3664L46.9952 39.3513L47.98 39.1776L47.8063 38.1928L46.8215 38.3664ZM43.0949 39.0235L42.9213 38.0387L41.9364 38.2124L42.1101 39.1972L43.0949 39.0235ZM43.7727 42.8677L43.9464 43.8525L44.9312 43.6788L44.7575 42.694L43.7727 42.8677ZM43.7168 42.8775L42.2013 34.2828L40.2317 34.6301L41.7472 43.2248L43.7168 42.8775ZM41.3901 35.4413L46.5436 34.5326L46.1963 32.563L41.0428 33.4717L41.3901 35.4413ZM45.3851 33.7214L45.5479 34.6447L47.5175 34.2974L47.3547 33.3741L45.3851 33.7214ZM46.3591 33.4862L42.2464 34.2114L42.5937 36.181L46.7064 35.4559L46.3591 33.4862ZM41.4352 35.3699L41.9473 38.2739L43.9169 37.9266L43.4049 35.0226L41.4352 35.3699ZM43.1058 39.0851L46.8324 38.428L46.4851 36.4584L42.7585 37.1155L43.1058 39.0851ZM45.6739 37.6168L45.8367 38.5401L47.8063 38.1928L47.6435 37.2695L45.6739 37.6168ZM46.6479 37.3816L42.9213 38.0387L43.2686 40.0084L46.9952 39.3513L46.6479 37.3816ZM42.1101 39.1972L42.7879 43.0413L44.7575 42.694L44.0797 38.8499L42.1101 39.1972ZM43.5991 41.8828L42.5583 42.0664L42.9056 44.036L43.9464 43.8525L43.5991 41.8828ZM52.0554 34.7608L51.8818 33.776L50.897 33.9496L51.0706 34.9344L52.0554 34.7608ZM53.0458 34.5861L54.0307 34.4125L53.857 33.4277L52.8722 33.6013L53.0458 34.5861ZM54.1825 41.0321L54.3561 42.0169L55.3409 41.8433L55.1673 40.8585L54.1825 41.0321ZM53.192 41.2068L52.2072 41.3804L52.3809 42.3652L53.3657 42.1916L53.192 41.2068ZM52.9997 40.1157L53.9845 39.942L53.8108 38.9572L52.826 39.1308L52.9997 40.1157ZM52.9325 40.1275L52.7589 39.1427L52.1287 39.2538L51.9656 39.8725L52.9325 40.1275ZM52.3747 41.0869L53.0867 41.7892L53.0908 41.785L52.3747 41.0869ZM50.1051 41.565L49.7672 42.5063L49.7736 42.5085L50.1051 41.565ZM49.2244 40.8895L48.4194 41.4827L48.4212 41.4852L49.2244 40.8895ZM47.9931 35.4771L47.8195 34.4923L46.8347 34.6659L47.0083 35.6507L47.9931 35.4771ZM48.9835 35.3024L49.9683 35.1288L49.7947 34.144L48.8099 34.3176L48.9835 35.3024ZM50.2867 40.3863L49.6881 41.1874L49.6923 41.1905L50.2867 40.3863ZM52.0942 40.3056L51.5055 39.4972L51.502 39.4998L52.0942 40.3056ZM52.6383 39.6125L51.7256 39.2039L51.7226 39.2107L52.6383 39.6125ZM53.7121 38.3976L53.0402 34.5871L51.0706 34.9344L51.7425 38.7449L53.7121 38.3976ZM52.2291 35.7456L53.2195 35.5709L52.8722 33.6013L51.8818 33.776L52.2291 35.7456ZM52.061 34.7598L53.1976 41.2058L55.1673 40.8585L54.0307 34.4125L52.061 34.7598ZM54.0088 40.0473L53.0184 40.222L53.3657 42.1916L54.3561 42.0169L54.0088 40.0473ZM54.1769 41.0331L53.9845 39.942L52.0148 40.2893L52.2072 41.3804L54.1769 41.0331ZM52.826 39.1308L52.7589 39.1427L53.1062 41.1123L53.1733 41.1005L52.826 39.1308ZM51.9656 39.8725C51.9201 40.0448 51.8279 40.2154 51.6587 40.3889L53.0908 41.785C53.4786 41.3872 53.7582 40.9181 53.8994 40.3825L51.9656 39.8725ZM51.6628 40.3847C51.5618 40.4871 51.3852 40.5965 51.0524 40.6552L51.3997 42.6248C52.0405 42.5118 52.6297 42.2525 53.0867 41.7892L51.6628 40.3847ZM51.0524 40.6552C50.7979 40.7001 50.6001 40.679 50.4366 40.6216L49.7736 42.5085C50.2989 42.693 50.8485 42.722 51.3997 42.6248L51.0524 40.6552ZM50.4429 40.6238C50.3039 40.5739 50.1655 40.4798 50.0276 40.2938L48.4212 41.4852C48.7677 41.9523 49.2165 42.3085 49.7673 42.5062L50.4429 40.6238ZM50.0294 40.2963C49.9051 40.1275 49.7792 39.8478 49.7001 39.3993L47.7305 39.7466C47.8448 40.3948 48.0583 40.9928 48.4194 41.4827L50.0294 40.2963ZM49.7001 39.3993L48.9779 35.3034L47.0083 35.6507L47.7305 39.7466L49.7001 39.3993ZM48.1668 36.4619L49.1572 36.2872L48.8099 34.3176L47.8195 34.4923L48.1668 36.4619ZM47.9987 35.4761L48.7091 39.5048L50.6787 39.1575L49.9683 35.1288L47.9987 35.4761ZM48.7091 39.5048C48.8257 40.1663 49.1283 40.7691 49.6881 41.1874L50.8853 39.5853C50.8204 39.5368 50.7278 39.4361 50.6787 39.1575L48.7091 39.5048ZM49.6923 41.1905C50.2435 41.5979 50.8885 41.7283 51.5499 41.6117L51.2026 39.6421C51.0415 39.6705 50.9601 39.6405 50.8811 39.5821L49.6923 41.1905ZM51.5499 41.6117C51.9692 41.5378 52.3491 41.3592 52.6864 41.1114L51.502 39.4998C51.3744 39.5935 51.2757 39.6292 51.2026 39.6421L51.5499 41.6117ZM52.6829 41.114C53.074 40.8291 53.3621 40.4519 53.5541 40.0143L51.7226 39.2107C51.6594 39.3547 51.5847 39.4395 51.5055 39.4973L52.6829 41.114ZM53.5511 40.0211C53.7834 39.5021 53.8082 38.9422 53.7121 38.3976L51.7425 38.7449C51.7886 39.0062 51.754 39.1404 51.7256 39.204L53.5511 40.0211ZM55.9964 40.7123L55.0116 40.8859L55.1853 41.8707L56.1701 41.6971L55.9964 40.7123ZM54.8598 34.2663L54.6862 33.2815L53.7014 33.4551L53.875 34.4399L54.8598 34.2663ZM55.8167 34.0976L56.8015 33.9239L56.6278 32.9391L55.643 33.1127L55.8167 34.0976ZM55.9883 35.0712L55.0035 35.2448L55.1772 36.2296L56.162 36.056L55.9883 35.0712ZM56.0555 35.0593L56.2291 36.0441L56.9158 35.9231L57.0396 35.2368L56.0555 35.0593ZM56.5565 34.1705L55.8765 33.4372L55.8765 33.4372L56.5565 34.1705ZM58.068 33.614L59.0529 33.4404L58.8957 32.5492L57.9933 32.6168L58.068 33.614ZM58.2456 34.6212L58.1753 35.6187L59.4529 35.7089L59.2304 34.4476L58.2456 34.6212ZM58.0082 34.6242L58.0175 35.6241L58.0308 35.624L58.044 35.6235L58.0082 34.6242ZM56.8249 35.0059L57.4388 35.7953L57.4421 35.7927L56.8249 35.0059ZM56.3405 35.6452L55.4125 35.2725L55.4113 35.2756L56.3405 35.6452ZM56.9868 40.5376L57.1605 41.5225L58.1453 41.3488L57.9717 40.364L56.9868 40.5376ZM56.9812 40.5386L55.8446 34.0926L53.875 34.4399L55.0116 40.8859L56.9812 40.5386ZM55.0335 35.2511L55.9903 35.0824L55.643 33.1127L54.6862 33.2815L55.0335 35.2511ZM54.8319 34.2712L55.0035 35.2448L56.9731 34.8975L56.8015 33.9239L54.8319 34.2712ZM56.162 36.056L56.2291 36.0441L55.8818 34.0745L55.8147 34.0864L56.162 36.056ZM57.0396 35.2368C57.0593 35.1274 57.1095 35.0214 57.2364 34.9037L55.8765 33.4372C55.458 33.8254 55.1742 34.3119 55.0714 34.8818L57.0396 35.2368ZM57.2364 34.9037C57.3603 34.7889 57.511 34.7104 57.7183 34.6738L57.3711 32.7042C56.8063 32.8038 56.2981 33.0463 55.8765 33.4372L57.2364 34.9037ZM57.7183 34.6738C57.7796 34.663 57.8617 34.6498 57.9666 34.634L57.6699 32.6562C57.5555 32.6733 57.4552 32.6894 57.3711 32.7042L57.7183 34.6738ZM57.9666 34.634C58.0699 34.6185 58.1237 34.6127 58.1428 34.6112L57.9933 32.6168C57.8985 32.6239 57.7858 32.6388 57.6699 32.6562L57.9666 34.634ZM57.0832 33.7877L57.2608 34.7949L59.2304 34.4476L59.0529 33.4404L57.0832 33.7877ZM58.316 33.6237C58.2171 33.6167 58.0805 33.6209 57.9723 33.6248L58.044 35.6235C58.1016 35.6214 58.1436 35.6204 58.1723 35.62C58.1866 35.6198 58.1947 35.6199 58.198 35.6199C58.2033 35.62 58.1936 35.62 58.1753 35.6187L58.316 33.6237ZM57.9988 33.6242C57.8174 33.6259 57.6361 33.644 57.4558 33.6758L57.8031 35.6454C57.8859 35.6308 57.957 35.6247 58.0175 35.6241L57.9988 33.6242ZM57.4558 33.6758C57.0008 33.7561 56.5753 33.9308 56.2078 34.219L57.4421 35.7927C57.5206 35.7312 57.6315 35.6757 57.8031 35.6454L57.4558 33.6758ZM56.2111 34.2164C55.8534 34.4945 55.5821 34.8504 55.4126 35.2725L57.2685 36.0178C57.3034 35.9308 57.355 35.8604 57.4388 35.7953L56.2111 34.2164ZM55.4113 35.2756C55.2365 35.7151 55.2023 36.176 55.2828 36.6322L57.2524 36.2849C57.2302 36.1591 57.2447 36.0778 57.2697 36.0147L55.4113 35.2756ZM55.2828 36.6322L56.002 40.7113L57.9717 40.364L57.2524 36.2849L55.2828 36.6322ZM56.8132 39.5528L55.8228 39.7275L56.1701 41.6971L57.1605 41.5225L56.8132 39.5528ZM61.3839 39.7623L61.5575 40.7471L62.5423 40.5735L62.3687 39.5887L61.3839 39.7623ZM60.3935 39.937L59.4086 40.1106L59.5823 41.0954L60.5671 40.9218L60.3935 39.937ZM59.2568 33.491L59.0832 32.5062L58.0984 32.6798L58.272 33.6646L59.2568 33.491ZM60.2137 33.3222L61.1985 33.1486L61.0248 32.1638L60.04 32.3374L60.2137 33.3222ZM60.3913 34.3294L59.4065 34.5031L59.5801 35.4879L60.5649 35.3142L60.3913 34.3294ZM60.4752 34.3146L60.6489 35.2994L61.279 35.1883L61.4421 34.5697L60.4752 34.3146ZM61.0243 33.4043L61.7043 34.1376L61.709 34.1332L61.0243 33.4043ZM63.3559 32.9586L63.0357 33.9059L63.0419 33.908L63.3559 32.9586ZM64.2618 33.6296L63.4605 34.2279L63.4623 34.2304L64.2618 33.6296ZM65.4965 39.0372L65.6702 40.022L66.655 39.8483L66.4814 38.8635L65.4965 39.0372ZM64.5061 39.2118L63.5213 39.3854L63.695 40.3703L64.6798 40.1966L64.5061 39.2118ZM63.1926 34.0691L62.5861 34.8642L62.59 34.8672L63.1926 34.0691ZM61.2229 34.1871L60.5959 33.4082L60.5921 33.4112L61.2229 34.1871ZM60.7454 34.8901L59.797 34.5731L59.797 34.5731L60.7454 34.8901ZM59.7153 36.0583L60.399 39.936L62.3687 39.5887L61.6849 35.711L59.7153 36.0583ZM61.2102 38.7775L60.2198 38.9522L60.5671 40.9218L61.5575 40.7471L61.2102 38.7775ZM61.3783 39.7633L60.2417 33.3173L58.272 33.6646L59.4086 40.1106L61.3783 39.7633ZM59.4305 34.4758L60.3873 34.3071L60.04 32.3374L59.0832 32.5062L59.4305 34.4758ZM59.2289 33.4959L59.4065 34.5031L61.3761 34.1558L61.1985 33.1486L59.2289 33.4959ZM60.5649 35.3142L60.6489 35.2994L60.3016 33.3298L60.2176 33.3446L60.5649 35.3142ZM61.4421 34.5697C61.4863 34.4022 61.5683 34.2637 61.7043 34.1376L60.3444 32.6711C59.9349 33.0507 59.6508 33.5192 59.5083 34.0596L61.4421 34.5697ZM61.709 34.1332C61.8003 34.0475 61.9805 33.9396 62.3365 33.8768L61.9893 31.9072C61.3716 32.0161 60.7929 32.2498 60.3397 32.6754L61.709 34.1332ZM62.3365 33.8768C62.636 33.824 62.8607 33.8467 63.0357 33.9059L63.6762 32.0112C63.1334 31.8277 62.5627 31.8061 61.9893 31.9072L62.3365 33.8768ZM63.0419 33.908C63.1887 33.9565 63.3264 34.0482 63.4605 34.2279L65.0631 33.0314C64.7062 32.5534 64.24 32.1977 63.6699 32.0091L63.0419 33.908ZM63.4623 34.2304C63.5847 34.3933 63.7107 34.6678 63.7895 35.1149L65.7591 34.7676C65.6446 34.118 65.4289 33.5181 65.0613 33.0289L63.4623 34.2304ZM63.7895 35.1149L64.5117 39.2108L66.4814 38.8635L65.7591 34.7676L63.7895 35.1149ZM65.3229 38.0524L64.3325 38.227L64.6798 40.1966L65.6702 40.022L65.3229 38.0524ZM65.491 39.0381L64.7806 35.0094L62.811 35.3567L63.5213 39.3854L65.491 39.0381ZM64.7806 35.0094C64.6615 34.3338 64.3663 33.7023 63.7952 33.2711L62.59 34.8672C62.6446 34.9084 62.7515 35.0195 62.811 35.3567L64.7806 35.0094ZM63.7991 33.2741C63.2231 32.8347 62.5401 32.7274 61.8608 32.8472L62.2081 34.8168C62.4464 34.7748 62.5355 34.8256 62.5861 34.8642L63.7991 33.2741ZM61.8608 32.8472C61.3975 32.9289 60.9663 33.1099 60.5959 33.4082L61.85 34.9661C61.9292 34.9023 62.039 34.8466 62.2081 34.8168L61.8608 32.8472ZM60.5921 33.4112C60.2136 33.7189 59.9496 34.1165 59.797 34.5731L61.6939 35.2071C61.7339 35.0873 61.7882 35.0163 61.8538 34.9631L60.5921 33.4112ZM59.797 34.5731C59.6362 35.0543 59.6275 35.5601 59.7153 36.0583L61.6849 35.711C61.6406 35.4594 61.6621 35.3022 61.6939 35.2071L59.797 34.5731ZM67.3063 38.718L66.3215 38.8917L66.4952 39.8765L67.48 39.7029L67.3063 38.718ZM66.1697 32.272L65.9961 31.2872L65.0113 31.4609L65.1849 32.4457L66.1697 32.272ZM67.1601 32.0974L68.1449 31.9237L67.9713 30.9389L66.9865 31.1126L67.1601 32.0974ZM68.2967 38.5434L68.4704 39.5282L69.4552 39.3546L69.2816 38.3698L68.2967 38.5434ZM65.9497 30.9997L65.3933 31.8307L65.4017 31.8362L65.9497 30.9997ZM65.7825 30.0513L64.9814 29.4526L64.9755 29.4608L65.7825 30.0513ZM66.7771 29.8759L66.2207 30.7069L66.2291 30.7124L66.7771 29.8759ZM66.9443 30.8243L66.1432 30.2257L66.1373 30.2338L66.9443 30.8243ZM68.2912 38.5444L67.1545 32.0984L65.1849 32.4457L66.3215 38.8917L68.2912 38.5444ZM66.3434 33.2568L67.3338 33.0822L66.9865 31.1126L65.9961 31.2872L66.3434 33.2568ZM66.1753 32.271L67.3119 38.7171L69.2816 38.3698L68.1449 31.9237L66.1753 32.271ZM68.1231 37.5586L67.1327 37.7332L67.48 39.7029L68.4704 39.5282L68.1231 37.5586ZM66.3102 30.1241C66.3278 30.121 66.3623 30.1185 66.4058 30.1274C66.4495 30.1363 66.4812 30.1524 66.4977 30.1632L65.4017 31.8362C65.779 32.0834 66.2154 32.1717 66.6575 32.0937L66.3102 30.1241ZM66.5061 30.1688C66.525 30.1814 66.5595 30.2099 66.5916 30.2586C66.6241 30.3079 66.6395 30.3554 66.6453 30.3881L64.6757 30.7354C64.757 31.1969 65.014 31.5766 65.3933 31.8306L66.5061 30.1688ZM66.6453 30.3881C66.651 30.4208 66.6529 30.4707 66.6392 30.5281C66.6256 30.5849 66.6029 30.6235 66.5895 30.6418L64.9755 29.4608C64.7059 29.8292 64.5943 30.2739 64.6757 30.7354L66.6453 30.3881ZM66.5835 30.6499C66.5717 30.6657 66.5474 30.6917 66.5094 30.715C66.4715 30.7383 66.4383 30.7477 66.4208 30.7508L66.0735 28.7812C65.6313 28.8591 65.2515 29.0914 64.9815 29.4527L66.5835 30.6499ZM66.4208 30.7508C66.4033 30.7539 66.3674 30.7567 66.3213 30.7471C66.2749 30.7375 66.2402 30.7199 66.2207 30.7068L67.3335 29.045C66.955 28.7915 66.516 28.7031 66.0735 28.7812L66.4208 30.7508ZM66.2291 30.7124C66.2112 30.7007 66.1759 30.6724 66.1424 30.6226C66.1085 30.572 66.092 30.5222 66.0857 30.4868L68.0553 30.1395C67.9728 29.6711 67.7086 29.2907 67.3251 29.0394L66.2291 30.7124ZM66.0857 30.4868C66.0795 30.4514 66.0779 30.3989 66.0926 30.3397C66.1069 30.2815 66.1305 30.2428 66.1433 30.2257L67.7453 31.423C68.0198 31.0557 68.1379 30.6078 68.0553 30.1395L66.0857 30.4868ZM66.1373 30.2338C66.1511 30.2149 66.1777 30.1865 66.2181 30.1616C66.2581 30.1368 66.2928 30.1272 66.3102 30.1241L66.6575 32.0937C67.1001 32.0157 67.4824 31.7825 67.7513 31.4149L66.1373 30.2338ZM73.7946 32.4161L74.2299 33.3164L75.1743 32.8598L74.6731 31.9383L73.7946 32.4161ZM72.9493 32.8248L72.0892 33.3349L72.5578 34.1248L73.3846 33.7251L72.9493 32.8248ZM72.6255 32.4362L71.9396 33.1638L71.9476 33.1714L71.9558 33.1788L72.6255 32.4362ZM72.1269 32.1606L72.412 31.2021L72.412 31.2021L72.1269 32.1606ZM70.4551 32.5938L71.1565 33.3067L71.1581 33.3051L70.4551 32.5938ZM70.5569 33.8827L70.079 34.7611L70.079 34.7611L70.5569 33.8827ZM71.4591 34.0914L71.3887 35.0889L71.3929 35.0892L71.4591 34.0914ZM72.4574 34.1577L72.3911 35.1555L72.3939 35.1557L72.4574 34.1577ZM73.859 34.5726L73.2774 35.3861L73.2814 35.3889L73.859 34.5726ZM74.3331 36.6482L73.4356 36.2074L73.4328 36.213L74.3331 36.6482ZM70.5919 37.8358L70.9909 36.9189L70.9909 36.9189L70.5919 37.8358ZM69.5531 36.7295L69.1457 35.8162L68.2672 36.208L68.6247 37.1011L69.5531 36.7295ZM70.4517 36.3287L71.3618 35.9145L70.9507 35.0112L70.0443 35.4155L70.4517 36.3287ZM71.0971 37.0198L70.6766 37.9271L70.6814 37.9293L71.0971 37.0198ZM73.1769 36.6184L73.894 37.3154L73.8953 37.3141L73.1769 36.6184ZM73.1282 35.3116L72.562 36.1359L72.5696 36.141L73.1282 35.3116ZM72.3457 35.0947L72.29 36.0932L72.2916 36.0933L72.3457 35.0947ZM71.227 35.0324L71.1689 36.0307L71.1713 36.0308L71.227 35.0324ZM69.8113 34.6113L69.206 35.4074L69.2139 35.4132L69.8113 34.6113ZM69.3401 32.5525L68.4452 32.1062L68.4423 32.1121L69.3401 32.5525ZM70.0675 31.7449L69.5082 30.9159L69.5058 30.9175L70.0675 31.7449ZM72.8187 31.4458L72.3559 32.3323L72.3592 32.334L72.8187 31.4458ZM73.3593 31.5158L72.5141 31.9245L73.3846 33.7251L74.2299 33.3164L73.3593 31.5158ZM73.8094 32.3146C73.6702 32.0799 73.495 31.8737 73.2952 31.6936L71.9558 33.1788C72.0236 33.2399 72.0642 33.2928 72.0892 33.3349L73.8094 32.3146ZM73.3115 31.7085C73.0493 31.4614 72.7387 31.2993 72.412 31.2021L71.8418 33.1191C71.9169 33.1414 71.9387 33.163 71.9396 33.1638L73.3115 31.7085ZM72.412 31.2021C72.0153 31.0841 71.6037 31.0946 71.2196 31.1624L71.5669 33.132C71.7591 33.0981 71.8366 33.1176 71.8418 33.1191L72.412 31.2021ZM71.2196 31.1624C70.6722 31.2589 70.1584 31.4812 69.7522 31.8826L71.1581 33.3051C71.2137 33.2501 71.3253 33.1746 71.5669 33.132L71.2196 31.1624ZM69.7538 31.881C69.3288 32.2992 69.086 32.8698 69.2007 33.5204L71.1703 33.1731C71.1718 33.1816 71.1736 33.1984 71.1718 33.2214C71.17 33.2446 71.165 33.2676 71.1577 33.288C71.1426 33.3301 71.1279 33.3347 71.1565 33.3067L69.7538 31.881ZM69.2007 33.5204C69.2924 34.0404 69.585 34.4923 70.079 34.7611L71.0348 33.0043C71.0602 33.0181 71.0996 33.0479 71.1328 33.0958C71.1646 33.1417 71.1707 33.1753 71.1703 33.1731L69.2007 33.5204ZM70.079 34.7611C70.4683 34.9729 70.9364 35.057 71.3887 35.0889L71.5295 33.0939C71.369 33.0826 71.2483 33.0641 71.161 33.0439C71.1181 33.034 71.0867 33.0244 71.0651 33.0167C71.0433 33.0089 71.0343 33.004 71.0348 33.0043L70.079 34.7611ZM71.3929 35.0892L72.3911 35.1555L72.5237 33.1599L71.5254 33.0936L71.3929 35.0892ZM72.3939 35.1557C72.8906 35.1873 73.1515 35.2961 73.2774 35.3861L74.4406 33.7591C73.8997 33.3725 73.2262 33.2046 72.5209 33.1597L72.3939 35.1557ZM73.2814 35.3889C73.3722 35.4532 73.4529 35.5499 73.4927 35.7752L75.4623 35.4279C75.3432 34.7524 75.0115 34.1631 74.4366 33.7563L73.2814 35.3889ZM73.4927 35.7752C73.5219 35.9412 73.5009 36.0743 73.4356 36.2074L75.2307 37.0891C75.488 36.5652 75.5632 36.0006 75.4623 35.4279L73.4927 35.7752ZM73.4328 36.213C73.3624 36.3588 73.2385 36.5116 73.0146 36.6625L74.1319 38.3213C74.6041 38.0032 74.9869 37.5936 75.2335 37.0834L73.4328 36.213ZM73.0146 36.6625C72.8044 36.804 72.5178 36.9222 72.1262 36.9912L72.4735 38.9608C73.0836 38.8533 73.6459 38.6486 74.1319 38.3213L73.0146 36.6625ZM72.1262 36.9912C71.6098 37.0823 71.2488 37.0311 70.9909 36.9189L70.1929 38.7527C70.8974 39.0594 71.675 39.1016 72.4735 38.9608L72.1262 36.9912ZM70.9909 36.9189C70.7726 36.8238 70.6041 36.6643 70.4814 36.3579L68.6247 37.1011C68.9248 37.851 69.4489 38.429 70.1929 38.7527L70.9909 36.9189ZM69.9604 37.6428L70.859 37.242L70.0443 35.4155L69.1457 35.8162L69.9604 37.6428ZM69.5415 36.743C69.7724 37.2504 70.1422 37.6794 70.6766 37.9271L71.5175 36.1125C71.4928 36.101 71.4323 36.0694 71.3618 35.9145L69.5415 36.743ZM70.6814 37.9293C71.1996 38.1661 71.7618 38.1863 72.3028 38.0909L71.9555 36.1213C71.6851 36.1689 71.5593 36.1316 71.5128 36.1103L70.6814 37.9293ZM72.3028 38.0909C72.8947 37.9865 73.4645 37.7573 73.894 37.3154L72.4598 35.9215C72.4156 35.9669 72.2869 36.0628 71.9555 36.1213L72.3028 38.0909ZM73.8953 37.3141C74.3017 36.8944 74.5643 36.323 74.4472 35.6588L72.4776 36.0061C72.4753 35.9933 72.4737 35.9744 72.4757 35.9518C72.4776 35.9292 72.4825 35.9097 72.4877 35.8953C72.498 35.8668 72.5024 35.8775 72.4585 35.9228L73.8953 37.3141ZM74.4472 35.6588C74.3621 35.1762 74.1024 34.762 73.6868 34.4821L72.5696 36.141C72.5563 36.1321 72.5306 36.1104 72.5075 36.0744C72.4848 36.0389 72.4785 36.0113 72.4776 36.0061L74.4472 35.6588ZM73.6944 34.4873C73.3001 34.2165 72.8332 34.1197 72.3998 34.0962L72.2916 36.0933C72.4055 36.0995 72.4815 36.1136 72.5277 36.1264C72.5734 36.139 72.5785 36.1472 72.562 36.1359L73.6944 34.4873ZM72.4014 34.0963L71.2826 34.0339L71.1713 36.0308L72.29 36.0932L72.4014 34.0963ZM71.2851 34.0341C70.7734 34.0043 70.5205 33.8926 70.4087 33.8094L69.2139 35.4132C69.7597 35.8198 70.4506 35.9889 71.1689 36.0307L71.2851 34.0341ZM70.4165 33.8152C70.3114 33.7353 70.2283 33.6223 70.1888 33.3981L68.2191 33.7454C68.3365 34.4108 68.6583 34.9908 69.2061 35.4073L70.4165 33.8152ZM70.1888 33.3981C70.1595 33.232 70.1812 33.1085 70.2379 32.9929L68.4423 32.1121C68.1892 32.628 68.1202 33.184 68.2191 33.7454L70.1888 33.3981ZM70.235 32.9987C70.3074 32.8535 70.4266 32.7097 70.6291 32.5722L69.5058 30.9175C69.0539 31.2243 68.6882 31.6188 68.4452 32.1062L70.235 32.9987ZM70.6267 32.5739C70.8237 32.4409 71.0793 32.3352 71.4159 32.2759L71.0686 30.3063C70.4988 30.4067 69.9712 30.6035 69.5082 30.9159L70.6267 32.5739ZM71.4159 32.2759C71.9198 32.187 72.2019 32.2519 72.3559 32.3323L73.2815 30.5594C72.6094 30.2085 71.8406 30.1701 71.0686 30.3063L71.4159 32.2759ZM72.3592 32.334C72.5884 32.4526 72.7718 32.6285 72.9161 32.8938L74.6731 31.9383C74.3478 31.3402 73.8807 30.8693 73.2782 30.5576L72.3592 32.334ZM77.2754 36.9602L77.4491 37.945L78.4339 37.7714L78.2602 36.7866L77.2754 36.9602ZM76.285 37.1349L75.3002 37.3085L75.4739 38.2933L76.4587 38.1197L76.285 37.1349ZM74.7695 28.5402L74.5959 27.5554L73.6111 27.729L73.7847 28.7138L74.7695 28.5402ZM75.7599 28.3655L76.7448 28.1919L76.5711 27.2071L75.5863 27.3807L75.7599 28.3655ZM76.3164 31.5214L75.3316 31.695L75.5053 32.6799L76.4901 32.5062L76.3164 31.5214ZM76.4003 31.5066L76.574 32.4914L77.2086 32.3795L77.3689 31.7554L76.4003 31.5066ZM76.9403 30.5936L77.6217 31.3255L77.6234 31.324L76.9403 30.5936ZM79.3055 30.1419L78.9949 31.0925L79.0012 31.0945L79.3055 30.1419ZM80.2148 30.808L79.4135 31.4063L79.4191 31.4137L80.2148 30.808ZM81.4553 36.2232L81.6289 37.208L82.6137 37.0344L82.4401 36.0496L81.4553 36.2232ZM80.4649 36.3978L79.48 36.5715L79.6537 37.5563L80.6385 37.3827L80.4649 36.3978ZM79.1464 31.2517L78.5438 32.0498L78.552 32.0559L79.1464 31.2517ZM77.1397 31.3806L76.5235 30.593L76.5199 30.5958L77.1397 31.3806ZM76.6412 32.0872L75.698 31.7548L75.6954 31.7625L76.6412 32.0872ZM75.6069 33.2562L76.2906 37.1339L78.2602 36.7866L77.5765 32.9089L75.6069 33.2562ZM77.1018 35.9754L76.1114 36.1501L76.4587 38.1197L77.4491 37.945L77.1018 35.9754ZM77.2698 36.9612L75.7544 28.3665L73.7847 28.7138L75.3002 37.3085L77.2698 36.9612ZM74.9432 29.525L75.9336 29.3503L75.5863 27.3807L74.5959 27.5554L74.9432 29.525ZM74.7751 28.5392L75.3316 31.695L77.3012 31.3478L76.7448 28.1919L74.7751 28.5392ZM76.4901 32.5062L76.574 32.4914L76.2267 30.5218L76.1428 30.5366L76.4901 32.5062ZM77.3689 31.7554C77.4145 31.578 77.4963 31.4423 77.6217 31.3255L76.259 29.8616C75.8492 30.2431 75.571 30.716 75.4318 31.2578L77.3689 31.7554ZM77.6234 31.324C77.7064 31.2463 77.891 31.1341 78.2785 31.0658L77.9312 29.0962C77.3059 29.2065 76.7141 29.436 76.2573 29.8632L77.6234 31.324ZM78.2785 31.0658C78.5841 31.0119 78.8149 31.0336 78.9949 31.0924L79.6162 29.1914C79.0737 29.0141 78.5041 28.9952 77.9312 29.0962L78.2785 31.0658ZM79.0012 31.0945C79.1465 31.1409 79.2817 31.2297 79.4135 31.4063L81.0162 30.2098C80.657 29.7287 80.1859 29.3734 79.6099 29.1893L79.0012 31.0945ZM79.4191 31.4137C79.541 31.5739 79.6684 31.8482 79.7482 32.301L81.7178 31.9537C81.6023 31.2985 81.3842 30.6933 81.0106 30.2024L79.4191 31.4137ZM79.7482 32.301L80.4705 36.3969L82.4401 36.0496L81.7178 31.9537L79.7482 32.301ZM81.2816 35.2384L80.2912 35.413L80.6385 37.3827L81.6289 37.208L81.2816 35.2384ZM81.4497 36.2242L80.7393 32.1954L78.7697 32.5427L79.48 36.5715L81.4497 36.2242ZM80.7393 32.1954C80.6194 31.5157 80.3221 30.8773 79.7408 30.4476L78.552 32.0559C78.6009 32.092 78.709 32.1985 78.7697 32.5427L80.7393 32.1954ZM79.749 30.4537C79.1688 30.0156 78.4812 29.9166 77.8027 30.0362L78.15 32.0058C78.4059 31.9607 78.4983 32.0155 78.5438 32.0498L79.749 30.4537ZM77.8027 30.0362C77.3352 30.1186 76.8999 30.2985 76.5235 30.593L77.7559 32.1681C77.8459 32.0977 77.9684 32.0378 78.15 32.0058L77.8027 30.0362ZM76.5199 30.5958C76.1344 30.9003 75.8599 31.2956 75.6981 31.7548L77.5843 32.4197C77.6263 32.3006 77.6842 32.2248 77.7595 32.1653L76.5199 30.5958ZM75.6954 31.7625C75.5293 32.2462 75.5185 32.7552 75.6069 33.2562L77.5765 32.9089C77.5326 32.6601 77.5549 32.5055 77.587 32.412L75.6954 31.7625Z" fill="black" fill-opacity="0.2"/>
</g>
<defs>
<filter id="filter0_d_0_1" x="0" y="0" width="140" height="73" filterUnits="userSpaceOnUse" color-interpolation-filters="sRGB">
<feFlood flood-opacity="0" result="BackgroundImageFix"/>
<feColorMatrix in="SourceAlpha" type="matrix" values="0 0 0 0 0 0 0 0 0 0 0 0 0 0 0 0 0 0 127 0" result="hardAlpha"/>
<feOffset dy="4"/>
<feGaussianBlur stdDeviation="2"/>
<feComposite in2="hardAlpha" operator="out"/>
<feColorMatrix type="matrix" values="0 0 0 0 0 0 0 0 0 0 0 0 0 0 0 0 0 0 0.25 0"/>
<feBlend mode="normal" in2="BackgroundImageFix" result="effect1_dropShadow_0_1"/>
<feBlend mode="normal" in="SourceGraphic" in2="effect1_dropShadow_0_1" result="shape"/>
</filter>
<clipPath id="clip0_0_1">
<rect width="132" height="65" fill="white" transform="translate(4)"/>
</clipPath>
</defs>
</svg>
